<?xml version="1.0" encoding="UTF-8"?>
<svg width="20px" height="20px" viewBox="0 0 20 20" version="1.1" xmlns="http://www.w3.org/2000/svg" xmlns:xlink="http://www.w3.org/1999/xlink">
    <!-- Generator: Sketch 44.1 (41455) - http://www.bohemiancoding.com/sketch -->
    <title>Info</title>
    <desc>Created with Sketch.</desc>
    <defs></defs>
    <g id="Screens-from-Acumatica" stroke="none" stroke-width="1" fill="none" fill-rule="evenodd">
        <g id="Inquiry-screen---default-behaviour" transform="translate(-321.000000, -519.000000)">
            <g id="Group-3" transform="translate(306.000000, 506.000000)">
                <g id="Group-2" transform="translate(14.000000, 12.000000)">
                    <g id="Info" transform="translate(11.000000, 11.000000) scale(1, -1) translate(-11.000000, -11.000000) ">
                        <rect id="Rectangle-19" x="0" y="0" width="22" height="22"></rect>
                        <path d="M20.7777778,11 C20.7777778,5.59964931 16.4003507,1.22222222 11,1.22222222 C5.59964931,1.22222222 1.22222222,5.59964931 1.22222222,11 C1.22222222,16.4003507 5.59964931,20.7777778 11,20.7777778 C16.4003507,20.7777778 20.7777778,16.4003507 20.7777778,11 L20.7777778,11 Z M3.66666667,11 C3.66666667,6.95616319 6.95616319,3.66666667 11,3.66666667 C15.0438368,3.66666667 18.3333333,6.95616319 18.3333333,11 C18.3333333,15.0438368 15.0438368,18.3333333 11,18.3333333 C6.95616319,18.3333333 3.66666667,15.0438368 3.66666667,11 L3.66666667,11 Z" id="Shape" fill="#969EA7"></path>
                        <path d="M9.77777778,10.9997647 C9.77777778,10.32488 10.3202792,9.77777778 11,9.77777778 C11.6750147,9.77777778 12.2222222,10.3200981 12.2222222,10.9997647 L12.2222222,14.666902 C12.2222222,15.3417867 11.6797208,15.8888889 11,15.8888889 C10.3249853,15.8888889 9.77777778,15.3465685 9.77777778,14.666902 L9.77777778,10.9997647 Z M11,6.11111111 C11.6750147,6.11111111 12.2222222,6.65361256 12.2222222,7.33333333 C12.2222222,8.00834803 11.6797208,8.55555556 11,8.55555556 C10.3249853,8.55555556 9.77777778,8.01305411 9.77777778,7.33333333 C9.77777778,6.65831864 10.3202792,6.11111111 11,6.11111111 Z" id="Combined-Shape" fill="#969EA7" transform="translate(11.000000, 11.000000) scale(1, -1) translate(-11.000000, -11.000000) "></path>
                    </g>
                </g>
            </g>
        </g>
    </g>
</svg>