<?xml version="1.0" encoding="utf-8"?>
<svg version="1.1" xmlns="http://www.w3.org/2000/svg" xmlns:xlink="http://www.w3.org/1999/xlink" x="0px" y="0px"
	 viewBox="0 0 210 50" style="enable-background:new 0 0 210 50;" xml:space="preserve">
<style type="text/css">
	.st0{opacity:0;fill:#039BE5;}
	.st1{fill:#FFFFFF;}
</style>
<g id="hidden-background">
	<rect y="0" class="st0" width="210" height="50"/>
</g>
<g id="logotype">
	<g>
		<path class="st1" d="M35.3,28.2H31c-2.4,0-4.3-1.9-4.3-4.3c0-2.4,1.9-4.3,4.3-4.3c2.4,0,4.3,1.9,4.3,4.3V28.2z M31,13
			c-6,0-11,4.9-11,10.9c0,6,4.9,10.9,11,10.9h11V23.9C41.9,17.9,37,13,31,13"/>
		<g>
			<path class="st1" d="M57.4,18.3h1.3l2.2,9.5h-5.8L57.4,18.3z M54.8,15.3l-4.7,19.6h3.3l1-3.9h7.1l1.1,3.9H66l-4.6-19.6H54.8z"/>
			<path class="st1" d="M77.4,20.9l-0.1,2.8c0,0-2.2-0.3-3.3-0.3c-2.9,0-3.5,1.1-3.5,4.1c0,3.4,0.6,4.5,3.6,4.5
				c1.1,0,3.3-0.3,3.3-0.3l0.1,2.8c0,0-2.9,0.5-4.4,0.5c-4.3,0-5.9-2.2-5.9-7.6c0-5.1,1.7-7.2,6-7.2C74.7,20.4,77.4,20.9,77.4,20.9"
				/>
			<path class="st1" d="M91.5,20.7v14.1h-3.2v-0.7c0,0-2.2,1-3.7,1c-4.1,0-4.9-2.1-4.9-7v-7.4h3.2v7.4c0,3,0.2,4.2,2.3,4.2
				c1.2,0,3.1-0.7,3.1-0.7V20.7H91.5z"/>
			<path class="st1" d="M94,34.8V20.7h3.2v0.8c0,0,1.2-0.7,2.5-0.9c0.5-0.1,1-0.2,1.5-0.2c1.4,0.1,2.5,0.5,3.2,1.2
				c1.2-0.5,3.3-1.2,4.9-1.2c3.9,0,4.9,2.1,4.9,7.1v7.4H111v-6.1c0-3.8-0.1-5.3-2.3-5.3c-1.4,0-3.1,0.7-3.1,0.7
				c0.1,0.2,0.2,2.1,0.2,3.4v7.3h-3.2v-7.3c0-3-0.3-4.2-2.3-4.2c-1.2,0-2.9,0.7-2.9,0.7v10.8H94z"/>
			<path class="st1" d="M127.6,31c0,1,0.3,1.3,1.2,1.4l-0.1,2.7c-2.2,0-3-0.3-3.8-1c0,0-2.4,1-4.6,1c-2.7,0-4.1-1.7-4.1-4.5
				c0-3,1.7-4.1,4.7-4.3l3.5-0.3v-0.8c0-1.1-0.7-1.7-1.8-1.7c-2.1,0-5.5,0.3-5.5,0.3L117,21c0,0,3.7-0.6,5.8-0.6
				c3.1,0,4.8,1.3,4.8,4.8V31z M121.3,28.7c-1.2,0.1-1.9,0.7-1.9,1.8c0,1.2,0.5,1.8,1.4,1.8c1.5,0,3.5-0.6,3.5-0.6v-3.3L121.3,28.7z
				"/>
			<path class="st1" d="M134.5,23.6v5.8c0,2,0.1,2.7,1.5,2.7c0.8,0,2.3-0.1,2.3-0.1l0.1,2.8c0,0-1.9,0.4-2.9,0.4
				c-3.3,0-4.3-1.2-4.3-5.3v-6.2h-1.8v-2.9h1.8v-4.1h3.2v4.1h3.8v2.9H134.5z"/>
			<path class="st1" d="M140.5,34.8h3.2V20.7h-3.2V34.8z M140.5,18.4h3.2V15h-3.2V18.4z"/>
			<path class="st1" d="M156.1,20.9l-0.1,2.8c0,0-2.2-0.3-3.3-0.3c-2.9,0-3.5,1.1-3.5,4.1c0,3.4,0.6,4.5,3.6,4.5
				c1.1,0,3.3-0.3,3.3-0.3l0.1,2.8c0,0-2.9,0.5-4.4,0.5c-4.3,0-5.9-2.2-5.9-7.6c0-5.1,1.7-7.2,6-7.2
				C153.3,20.4,156.1,20.9,156.1,20.9"/>
			<path class="st1" d="M168.8,31c0,1,0.3,1.3,1.2,1.4l-0.1,2.7c-2.2,0-3-0.3-3.8-1c0,0-2.4,1-4.6,1c-2.7,0-4.1-1.7-4.1-4.5
				c0-3,1.7-4.1,4.7-4.3l3.5-0.3v-0.8c0-1.1-0.7-1.7-1.8-1.7c-2.1,0-5.5,0.3-5.5,0.3l-0.1-2.7c0,0,3.7-0.6,5.8-0.6
				c3.1,0,4.8,1.3,4.8,4.8V31z M162.5,28.7c-1.2,0.1-1.9,0.7-1.9,1.8c0,1.2,0.5,1.8,1.4,1.8c1.5,0,3.5-0.6,3.5-0.6v-3.3L162.5,28.7z
				"/>
		</g>
	</g>
</g>
</svg>
