<?xml version="1.0" encoding="UTF-8"?>
<svg width="51px" height="50px" viewBox="0 0 51 50" version="1.1" xmlns="http://www.w3.org/2000/svg" xmlns:xlink="http://www.w3.org/1999/xlink">
    <!-- Generator: Sketch 44.1 (41455) - http://www.bohemiancoding.com/sketch -->
    <title>Group</title>
    <desc>Created with Sketch.</desc>
    <defs></defs>
    <g id="Screens-from-Acumatica" stroke="none" stroke-width="1" fill="none" fill-rule="evenodd">
        <g id="Selector-Lookup" transform="translate(-213.000000, -220.000000)">
            <g id="Group" transform="translate(214.000000, 221.000000)">
                <g id="noun_966556_cc" transform="translate(13.920455, 13.793103)" fill-rule="nonzero">
                    <path d="M7.85094764,15.4703264 C4.69218014,15.4914345 1.83259306,13.6202715 0.609011213,10.7315849 C-0.614570632,7.84289829 0.0395798179,4.50736818 2.26565458,2.2843174 C4.49172934,0.0612666136 7.84995195,-0.610125793 10.7703911,0.584008582 C13.6908302,1.77814296 15.5965329,4.60189461 15.5966046,7.73519138 C15.6093941,11.9920997 12.1425464,15.454238 7.85094764,15.4703264 Z M7.85094764,0.892171131 C5.05595967,0.871058826 2.52432696,2.52485477 1.4399509,5.08017216 C0.355574829,7.63548955 0.932769379,10.5873004 2.90161331,12.5552099 C4.87045725,14.5231193 7.84183208,15.1181935 10.4261939,14.0621499 C13.0105558,13.0061064 14.6971364,10.5076594 14.6972174,7.73519138 C14.707692,3.97192541 11.6448607,0.910547896 7.85094764,0.892171131 L7.85094764,0.892171131 Z" id="Shape" fill="#969EA7"></path>
                    <rect id="Rectangle-path" fill="#AEAEAE" transform="translate(17.127265, 16.331980) rotate(-45.000000) translate(-17.127265, -16.331980) " x="16.4840913" y="12.5347257" width="1.28634727" height="7.59450837"></rect>
                    <path d="M13.7688579,13.0918786 C14.3095493,12.5561336 15.1851988,12.5551582 15.7264812,13.0914887 L19.9886002,17.3146158 C20.5290743,17.8501453 20.527798,18.719675 19.9882067,19.2543298 L19.9882067,19.2543298 C19.4475153,19.7900747 18.5718658,19.7910502 18.0305834,19.2547197 L13.7684644,15.0315926 C13.2279903,14.496063 13.2292666,13.6265333 13.7688579,13.0918786" id="Rectangle-path" fill="#969EA7"></path>
                </g>
                <ellipse id="Oval-3" stroke="#AEAEAE" cx="24.4748924" cy="23.9500555" rx="24.4748924" ry="23.9500555"></ellipse>
            </g>
        </g>
    </g>
</svg>