<?xml version="1.0" standalone="no"?>
<!DOCTYPE svg PUBLIC "-//W3C//DTD SVG 1.1//EN" "http://www.w3.org/Graphics/SVG/1.1/DTD/svg11.dtd" >
<svg xmlns="http://www.w3.org/2000/svg">
<metadata>Generated by IcoMoon</metadata>
<defs>
<font id="acumatica-font-v1" horiz-adv-x="1024">
<font-face units-per-em="1024" ascent="960" descent="-64" />
<missing-glyph horiz-adv-x="1024" />
<glyph unicode="&#x20;" horiz-adv-x="512" d="" />
<glyph unicode="&#xe900;" glyph-name="ac-compliance" d="M192 832v-768h640v768h-640zM192 896h640c35.346 0 64-28.654 64-64v-768c0-35.346-28.654-64-64-64h-640c-35.346 0-64 28.654-64 64v768c0 35.346 28.654 64 64 64zM288 640c-17.673 0-32 14.327-32 32s14.327 32 32 32h448c17.673 0 32-14.327 32-32s-14.327-32-32-32h-448zM288 512c-17.673 0-32 14.327-32 32s14.327 32 32 32h448c17.673 0 32-14.327 32-32s-14.327-32-32-32h-448zM288 384c-17.673 0-32 14.327-32 32s14.327 32 32 32h192c17.673 0 32-14.327 32-32s-14.327-32-32-32h-192zM288 256c-17.673 0-32 14.327-32 32s14.327 32 32 32h64c17.673 0 32-14.327 32-32s-14.327-32-32-32h-64zM694.676 338.75c10.355 14.321 30.36 17.537 44.681 7.181s17.537-30.36 7.181-44.681l-145.569-201.321-107.921 79.318c-14.241 10.466-17.3 30.495-6.834 44.736s30.495 17.3 44.736 6.834l55.949-41.121 107.776 149.054z" />
<glyph unicode="&#xe901;" glyph-name="main-Html" d="M642.75 828.75l-320.25-736 59-25.5 319.75 736zM206.5 635.5l-142.75-187.5 142.75-187.25 51 38.5-113.25 148.75 113.25 148.5zM817.5 635.5l-51-39 113.25-148.5-113.25-148.75 51-38.5 142.75 187.25z" />
<glyph unicode="&#xe902;" glyph-name="ac-play_arrow" d="M192 904v-853l49.25 31.25 618 395.25zM256 787.25l484.75-309.75-484.75-309.5z" />
<glyph unicode="&#xe903;" glyph-name="ac-open_in_new" d="M576 832v-64h211.2l-403.2-403.2 44.8-44.8 403.2 403.2v-211.2h64v320h-320zM256 832c-70.4 0-128-57.6-128-128v-512c0-70.4 57.6-128 128-128h512c70.4 0 128 57.6 128 128v256l-64-64v-192c0-38.4-25.6-64-64-64h-512c-38.4 0-64 25.6-64 64v512c0 38.4 25.6 64 64 64h192l64 64h-256z" />
<glyph unicode="&#xe904;" glyph-name="main-Adjust" d="M953.6 896h70.4v-896h-70.4v896zM6.4 896h70.4v-896h-70.4v896zM896 480l-160-160v128h-448v-128l-160 160 160 160v-128h448v128l160-160z" />
<glyph unicode="&#xe905;" glyph-name="ac-trending_down" d="M64 864v-832c0-17.673 14.327-32 32-32h832c17.673 0 32 14.327 32 32v0c0 17.673-14.327 32-32 32h-800v800c0 17.673-14.327 32-32 32v0c-17.673 0-32-14.327-32-32 0 0 0 0 0 0zM564.236 645.083c-7.064-0.854-13.678-3.966-18.89-8.885l-144.822-136.831-122.434 124.391c-8.229 9.575-21.015 13.709-33.177 10.727s-21.685-12.586-24.71-24.92c-3.025-12.335 0.949-25.355 10.313-33.786l145.521-147.848c12.713-12.984 33.247-13.456 46.525-1.070l144.822 136.831 165.81-168.817h-53.521c-12.111 0.174-23.375-6.291-29.481-16.919s-6.105-23.772 0-34.4c6.105-10.628 17.37-17.093 29.481-16.919h134.327c18.546 0.002 33.58 15.277 33.582 34.119v136.475c0.19 9.234-3.313 18.151-9.707 24.715s-15.135 10.215-24.225 10.117c-8.968-0.094-17.526-3.828-23.768-10.37s-9.65-15.349-9.464-24.459v-54.022l-188.548 191.918c-7.225 7.443-17.409 11.11-27.635 9.951v0z" />
<glyph unicode="&#xe906;" glyph-name="main-Cancel, ac-reply" d="M28.823 521.368l17.913-265.409c0.489-9.951 4.67-18.871 12.248-25.23s17.579-9.339 27.464-8.092l259.673 31.995c19.814 2.441 34.008 20.323 31.889 40.174v0c-2.112 19.785-19.815 34.144-39.61 32.126l-156.063-15.906 252.158 300.511c106.895 127.393 252.101 151.093 379.082 44.543s128.819-253.703 21.958-381.055l-68.682-81.852c-14.995-17.87-12.664-44.512 5.206-59.507v0c17.87-14.995 44.512-12.664 59.507 5.206l68.682 81.852c130.069 155.010 126.892 367.272-31.956 500.561s-368.471 99.519-498.506-55.451l-252.158-300.511-15.89 161.027c-1.969 19.951-19.433 34.728-39.435 33.365v0c-19.831-1.351-34.817-18.516-33.478-38.348z" />
<glyph unicode="&#xe907;" glyph-name="main-Redo, ac-reply2" d="M995.177 521.368l-17.913-265.409c-0.489-9.951-4.67-18.871-12.248-25.23s-17.579-9.339-27.464-8.092l-259.673 31.995c-19.814 2.441-34.008 20.323-31.889 40.174v0c2.112 19.785 19.815 34.144 39.61 32.126l156.063-15.906-252.158 300.511c-106.895 127.393-252.101 151.093-379.082 44.543s-128.819-253.703-21.958-381.055l68.682-81.852c14.995-17.87 12.664-44.512-5.206-59.507v0c-17.87-14.995-44.512-12.664-59.507 5.206l-68.682 81.852c-130.069 155.010-126.892 367.272 31.956 500.561s368.471 99.519 498.506-55.451l252.158-300.511 15.89 161.027c1.969 19.951 19.433 34.728 39.435 33.365v0c19.831-1.351 34.817-18.516 33.478-38.348z" />
<glyph unicode="&#xe908;" glyph-name="main-ArrowDown, ac-arrow_downwards" d="M198.4 512l262.4-262.4v582.4h96v-582.4l275.2 262.4 64-64-384-384-384 384 70.4 64z" />
<glyph unicode="&#xe909;" glyph-name="main-ArrowLeft, ac-arrow_back" d="M576 761.6l-262.4-262.4h582.4v-96h-582.4l262.4-275.2-64-64-384 384 384 384 64-70.4z" />
<glyph unicode="&#xe90a;" glyph-name="main-ArrowRight, ac-arrow_forward" d="M448 134.4l262.4 262.4h-582.4v96h582.4l-262.4 275.2 64 64 384-384-384-384-64 70.4z" />
<glyph unicode="&#xe90b;" glyph-name="main-ArrowUp, ac-arrow_upwards" d="M825.6 384l-262.4 262.4v-582.4h-96v582.4l-275.2-262.4-64 64 384 384 384-384-70.4-64z" />
<glyph unicode="&#xe90c;" glyph-name="ac-taxes" d="M320 768c-70.25 0-128-57.75-128-128s57.75-128 128-128c70.25 0 128 57.75 128 128s-57.75 128-128 128zM785.25 766.5l-591.75-591.75 45-45.5 592.25 592.25zM320 704c35.75 0 64-28.25 64-64s-28.25-64-64-64c-35.75 0-64 28.25-64 64s28.25 64 64 64zM704 384c-70.25 0-128-57.75-128-128s57.75-128 128-128c70.25 0 128 57.75 128 128s-57.75 128-128 128zM704 320c35.75 0 64-28.25 64-64s-28.25-64-64-64c-35.75 0-64 28.25-64 64s28.25 64 64 64z" />
<glyph unicode="&#xe90d;" glyph-name="ac-power_settings_new, main-Logout" d="M448 896v-384h64v384zM384 884.5c-183.25-43.75-320-208.25-320-404.5 0-229.5 186.5-416 416-416s416 186.5 416 416c0 196.25-136.75 360.75-320 404.5v-66.25c147.5-42 256-177.5 256-338.25 0-194.25-158-352-352-352s-352 158-352 352c0 160.75 108.5 296.5 256 338.5z" />
<glyph unicode="&#xe90e;" glyph-name="main-PageFirst, ac-first-page" d="M870.4 134.4l-313.6 313.6 313.6 313.6-70.4 70.4-384-384 384-384 70.4 70.4zM160 832h96v-768h-96v768z" />
<glyph unicode="&#xe90f;" glyph-name="main-PageFirstR" d="M198.4 89.6l313.6 313.6 313.6-313.6 70.4 70.4-384 384-384-384 70.4-70.4zM896 800v-96h-768v96h768z" />
<glyph unicode="&#xe910;" glyph-name="main-PageLast, ac-last-page" d="M160 761.6l313.6-313.6-313.6-313.6 70.4-70.4 384 384-384 384c0 0-70.4-70.4-70.4-70.4zM768 832h96v-768h-96v768z" />
<glyph unicode="&#xe911;" glyph-name="main-PageLastR" d="M128 729.6l384-384 384 384-70.4 70.4-313.6-313.6-313.6 313.6c0 0-70.4-70.4-70.4-70.4zM128 96v96h768v-96h-768z" />
<glyph unicode="&#xe912;" glyph-name="main-PagePrev" d="M716.8 761.6l-70.4 70.4-390.4-384 390.4-384 70.4 70.4-313.6 313.6 313.6 313.6z" />
<glyph unicode="&#xe913;" glyph-name="main-PageNext" d="M377.6 832l-70.4-70.4 313.6-313.6-313.6-313.6 70.4-70.4 390.4 384-390.4 384z" />
<glyph unicode="&#xe914;" glyph-name="main-PageNextR" d="M198.4 704l-70.4-70.4 384-390.4 384 390.4-70.4 70.4-313.6-313.6-313.6 313.6z" />
<glyph unicode="&#xe915;" glyph-name="main-PagePrevR" d="M825.6 243.2l70.4 70.4-384 390.4-384-390.4 70.4-70.4 313.6 313.6 313.6-313.6z" />
<glyph unicode="&#xe916;" glyph-name="ac-balance-scale" d="M325.274 811.055c-54.305 0-98.326-44.024-98.326-98.326v-529.455c0-54.305 44.024-98.326 98.326-98.326h378.182c54.305 0 98.326 44.024 98.326 98.326v529.455c0 54.305-44.024 98.326-98.326 98.326h-378.182zM325.274 864h378.182c83.545 0 151.274-67.726 151.274-151.274v-529.455c0-83.545-67.726-151.274-151.274-151.274h-378.182c-83.545 0-151.274 67.726-151.274 151.274v529.455c0 83.545 67.726 151.274 151.274 151.274zM325.274 712.726c-20.885 0-37.818-16.933-37.818-37.818s16.933-37.818 37.818-37.818h378.182c20.885 0 37.818 16.933 37.818 37.818s-16.933 37.818-37.818 37.818h-378.182zM363.091 334.545c-20.885 0-37.818-16.933-37.818-37.818s16.933-37.818 37.818-37.818c20.885 0 37.818 16.933 37.818 37.818s-16.933 37.818-37.818 37.818zM514.363 334.545c-20.885 0-37.818-16.933-37.818-37.818s16.933-37.818 37.818-37.818c20.885 0 37.818 16.933 37.818 37.818s-16.933 37.818-37.818 37.818zM363.091 448c-20.885 0-37.818-16.933-37.818-37.818s16.933-37.818 37.818-37.818c20.885 0 37.818 16.933 37.818 37.818s-16.933 37.818-37.818 37.818zM514.363 448c-20.885 0-37.818-16.933-37.818-37.818s16.933-37.818 37.818-37.818c20.885 0 37.818 16.933 37.818 37.818s-16.933 37.818-37.818 37.818zM665.637 448c-20.885 0-37.818-16.933-37.818-37.818s16.933-37.818 37.818-37.818c20.885 0 37.818 16.933 37.818 37.818s-16.933 37.818-37.818 37.818zM363.091 561.455c-20.885 0-37.818-16.933-37.818-37.818s16.933-37.818 37.818-37.818c20.885 0 37.818 16.933 37.818 37.818s-16.933 37.818-37.818 37.818zM514.363 561.455c-20.885 0-37.818-16.933-37.818-37.818s16.933-37.818 37.818-37.818c20.885 0 37.818 16.933 37.818 37.818s-16.933 37.818-37.818 37.818zM665.637 561.455c-20.885 0-37.818-16.933-37.818-37.818s16.933-37.818 37.818-37.818c20.885 0 37.818 16.933 37.818 37.818s-16.933 37.818-37.818 37.818zM665.637 334.545c-20.885 0-37.818-16.933-37.818-37.818v-113.455c0-20.885 16.933-37.818 37.818-37.818s37.818 16.933 37.818 37.818v113.455c0 20.885-16.933 37.818-37.818 37.818zM363.091 221.091c-20.885 0-37.818-16.933-37.818-37.818s16.933-37.818 37.818-37.818c20.885 0 37.818 16.933 37.818 37.818s-16.933 37.818-37.818 37.818zM514.363 221.091c-20.885 0-37.818-16.933-37.818-37.818s16.933-37.818 37.818-37.818c20.885 0 37.818 16.933 37.818 37.818s-16.933 37.818-37.818 37.818z" />
<glyph unicode="&#xe917;" glyph-name="main-LinkWB" d="M454.4 390.4c19.2-19.2 19.2-44.8 0-57.6s-44.8-12.8-64 0c-83.2 83.2-83.2 211.2 0 288l147.2 147.2c83.2 83.2 211.2 83.2 294.4 0s83.2-211.2 0-288l-57.6-57.6c0 32-6.4 64-19.2 96l19.2 19.2c51.2 51.2 51.2 128 0 172.8-51.2 51.2-128 51.2-172.8 0l-147.2-147.2c-51.2-44.8-51.2-121.6 0-172.8zM569.6 563.2c19.2 12.8 44.8 12.8 64 0 83.2-83.2 83.2-211.2 0-288l-147.2-147.2c-83.2-83.2-211.2-83.2-294.4 0s-83.2 211.2 0 288l57.6 57.6c0-32 6.4-64 19.2-96l-25.6-25.6c-51.2-51.2-51.2-128 0-172.8 51.2-51.2 128-51.2 172.8 0l147.2 147.2c51.2 51.2 51.2 128 0 172.8-6.4 25.6-6.4 44.8 6.4 64z" />
<glyph unicode="&#xe918;" glyph-name="ac-exit_to_app, main-outlookLogOut" d="M160 896c-51.2 0-96-44.8-96-96v-160h64v160c0 19.2 12.8 32 32 32h704c19.2 0 32-12.8 32-32v-640c0-19.2-12.8-32-32-32h-704c-19.2 0-32 12.8-32 32v160h-64v-160c0-51.2 44.8-96 96-96h704c51.2 0 96 44.8 96 96v640c0 51.2-44.8 96-96 96h-704zM492.8 704l-44.8-44.8 147.2-147.2h-531.2v-64h531.2l-147.2-147.2 44.8-44.8 224 224-224 224z" />
<glyph unicode="&#xe919;" glyph-name="ac-format_indent_decrease, text-IndentR" d="M93.867 832c-16.495 0-29.867 14.327-29.867 32s13.372 32 29.867 32h836.267c16.495 0 29.867-14.327 29.867-32s-13.372-32-29.867-32h-836.267zM352 576c-17.673 0-32 14.327-32 32s14.327 32 32 32h576c17.673 0 32-14.327 32-32s-14.327-32-32-32h-576zM352 320c-17.673 0-32 14.327-32 32s14.327 32 32 32h576c17.673 0 32-14.327 32-32s-14.327-32-32-32h-576zM93.867 64c-16.495 0-29.867 14.327-29.867 32s13.372 32 29.867 32h836.267c16.495 0 29.867-14.327 29.867-32s-13.372-32-29.867-32h-836.267zM256 480l-192-160v320l192-160z" />
<glyph unicode="&#xe91a;" glyph-name="ac-search, main-Search, control-Search" d="M676.572 349.258h-38.4l-16.458 16.458c43.886 49.372 71.314 115.2 71.314 186.514 5.486 153.6-126.172 279.772-279.772 279.772s-285.258-131.658-285.258-290.742 126.172-285.258 285.258-285.258c71.314 0 131.658 27.428 186.514 71.314l10.972-10.972v-38.4l213.942-213.942 71.314 71.314c-5.486 0-219.428 213.942-219.428 213.942zM413.258 349.258c-109.714 0-192 87.772-192 192s87.772 192 192 192 192-87.772 192-192-82.286-192-192-192z" />
<glyph unicode="&#xe91b;" glyph-name="ac-cran" d="M256 750.129v75.471c0 38.881 31.519 70.4 70.4 70.4h51.2c38.881 0 70.4-31.519 70.4-70.4v-65.102l450.332-56.292c35.23-4.404 61.668-34.352 61.668-69.856v-51.95c0-38.881-31.519-70.4-70.4-70.4h-121.6v-64.287h64c35.882-3.233 64-33.39 64-70.113v-115.2c0-38.881-31.519-70.4-70.4-70.4h-179.2c-38.881 0-70.4 31.519-70.4 70.4v115.2c0 36.723 28.118 66.88 64 70.113l64 0.359v63.928h-256c0-256 0-405.333 0-448 38.4 0 64 0 64-32s-25.743-32-64-32l-192 0.163c-38.4-0.163-63.982-0.163-63.982 31.837s25.582 32 63.982 32c0 42.667 0 192 0 448h-121.6c-38.881 0-70.4 31.519-70.4 70.4v52.987c0 30.302 19.39 57.205 48.138 66.787l143.862 47.954zM132.376 641.459c-2.613-0.871-4.376-3.317-4.376-6.072v-52.987c0-3.535 2.865-6.4 6.4-6.4h755.2c3.535 0 6.4 2.865 6.4 6.4v51.95c0 3.228-2.403 5.95-5.606 6.351l-506.394 63.299c-5.606 0-62.668 0.444-64 0l-187.624-62.541zM384 774.4v51.2c0 3.535-2.865 6.4-6.4 6.4h-51.2c-3.535 0-6.4-2.865-6.4-6.4v-51.2c0-3.535 2.865-6.4 6.4-6.4h51.2c3.535 0 6.4 2.865 6.4 6.4zM320 512v-441.455c0.081-3.677 3.010-6.478 6.543-6.398l51.2-0.147c3.478 0.078 6.257 2.921 6.257 6.4v441.6h-64zM646.4 384c-3.535 0-6.4-2.865-6.4-6.4v-115.2c0-3.535 2.865-6.4 6.4-6.4h179.2c3.535 0 6.4 2.865 6.4 6.4v115.2c0 3.535-2.865 6.4-6.4 6.4h-179.2z" />
<glyph unicode="&#xe91c;" glyph-name="ac-format_indent_increase, text-IndentL" d="M93.867 832c-16.495 0-29.867 14.327-29.867 32s13.372 32 29.867 32h836.267c16.495 0 29.867-14.327 29.867-32s-13.372-32-29.867-32h-836.267zM96 576c-17.673 0-32 14.327-32 32s14.327 32 32 32h576c17.673 0 32-14.327 32-32s-14.327-32-32-32h-576zM96 320c-17.673 0-32 14.327-32 32s14.327 32 32 32h576c17.673 0 32-14.327 32-32s-14.327-32-32-32h-576zM93.867 64c-16.495 0-29.867 14.327-29.867 32s13.372 32 29.867 32h836.267c16.495 0 29.867-14.327 29.867-32s-13.372-32-29.867-32h-836.267zM768 480l192 160v-320l-192 160z" />
<glyph unicode="&#xe91d;" d="M192 800c0 19.2 12.8 32 32 32h569.6c25.6 0 38.4-12.8 38.4-32v-704c0-19.2-12.8-32-32-32h-576c-19.2 0-32 6.4-32 25.6v710.4z" />
<glyph unicode="&#xe91e;" d="M230.4 896c-51.2 0-102.4-51.2-102.4-102.4v-691.2c0-51.2 51.2-102.4 102.4-102.4h563.2c57.6 0 102.4 51.2 102.4 102.4v691.2c0 51.2-51.2 102.4-102.4 102.4h-563.2zM192 800c0 19.2 12.8 32 32 32h569.6c25.6 0 38.4-12.8 38.4-32v-704c0-19.2-12.8-32-32-32h-576c-19.2 0-32 6.4-32 25.6v710.4zM320 704v-64h384v64h-384zM320 512v-64h384v64h-384zM320 320v-64h384v64h-384z" />
<glyph unicode="&#xe91f;" glyph-name="main-ActivityEmpty, ac-insert_drive_file" d="M230.4 896c-51.2 0-102.4-51.2-102.4-102.4v-691.2c0-51.2 51.2-102.4 102.4-102.4h563.2c57.6 0 102.4 51.2 102.4 102.4v691.2c0 51.2-51.2 102.4-102.4 102.4h-563.2zM192 800c0 19.2 12.8 32 32 32h569.6c25.6 0 38.4-12.8 38.4-32v-704c0-19.2-12.8-32-32-32h-576c-19.2 0-32 6.4-32 25.6v710.4z" />
<glyph unicode="&#xe920;" d="M576 832h-384v-768h640v512h-256v256zM640 806.4l166.4-166.4h-166.4v166.4z" />
<glyph unicode="&#xe921;" d="M640 896h-512v-896h768v640l-256 256zM640 806.4l166.4-166.4h-166.4v166.4zM832 64h-640v768h384v-256h256v-512zM704 256v-64h-384v64h384zM320 384v64h384v-64h-384zM320 640h128v-64h-128v64z" />
<glyph unicode="&#xe922;" glyph-name="main-Event" d="M160 832c-51.2 0-96-44.8-96-96v-640c0-51.2 44.8-96 96-96h704c51.2 0 96 44.8 96 96v640c0 51.2-44.8 96-96 96h-704zM160 640h704c19.2 0 32-12.8 32-32v-512c0-19.2-12.8-32-32-32h-704c-19.2 0-32 12.8-32 32v512c0 19.2 12.8 32 32 32zM812.8 832v76.8c0 25.6-19.2 51.2-51.2 51.2-25.6 0-51.2-19.2-51.2-51.2v-76.8h102.4zM313.6 832v76.8c0 25.6-19.2 51.2-51.2 51.2-25.6 0-51.2-19.2-51.2-51.2v-76.8h102.4zM448 512v-64h64v-256h64v320h-128z" />
<glyph unicode="&#xe923;" glyph-name="ac-fullscreen_exit" d="M320 832v-192h-192v-64h224c19.2 0 32 12.8 32 32v224h-64zM640 832v-224c0-12.8 12.8-32 25.6-32 0 0 6.4 0 6.4 0h224v64h-192v192h-64zM128 320v-64h192v-192h64v224c0 19.2-12.8 32-32 32h-224zM672 320c-19.2 0-32-12.8-32-32v-224h64v192h192v64h-224z" />
<glyph unicode="&#xe924;" glyph-name="ac-fullscreen" d="M160 832c-19.2 0-32-12.8-32-32v-224h64v192h192v64h-224zM640 832v-64h192v-192h64v224c0 19.2-12.8 32-32 32h-224zM128 320v-224c0-19.2 12.8-32 32-32h224v64h-192v192h-64zM832 320v-192h-192v-64h224c19.2 0 32 12.8 32 32v224h-64z" />
<glyph unicode="&#xe925;" glyph-name="ac-subdirectory_arrow_left" d="M768 832v-480c0-18-14-32-32-32h-493l140 146-46 44-213.5-222 213.5-222 46 44-140 146h493c52.75 0 96 43.25 96 96v480z" />
<glyph unicode="&#xe926;" glyph-name="ac-subdirectory_arrow_right" d="M192 832v-480c0-52.75 43.25-96 96-96h493l-140-146 46-44 213.25 222-213.25 222-46-44 140-146h-493c-18 0-32 14-32 32v480z" />
<glyph unicode="&#xe927;" glyph-name="ac-swap_horiz" d="M671.25 893.75l-45.25-45.25 144.5-144.5h-641.75v-64h642.25l-145-145 45.25-45 222 221.75zM352.75 445.75l-222-222 222-221.75 45.25 45-145 145h642v64h-641.5l144.5 144.5z" />
<glyph unicode="&#xe928;" glyph-name="ac-close_pane" d="M160 832c-52.75 0-96-43.25-96-96v-512c0-52.75 43.25-96 96-96h704c52.75 0 96 43.25 96 96v512c0 52.75-43.25 96-96 96zM160 768h544v-576h-544c-18 0-32 14-32 32v512c0 18 14 32 32 32zM768 768h96c18 0 32-14 32-32v-512c0-18-14-32-32-32h-96zM448 640v-128h-192v-64h192v-128l160 160z" />
<glyph unicode="&#xe929;" glyph-name="main-LevelDown, main-LevelUp" d="M512 320h192c32 0 64 32 64 64v128c0 32-32 64-64 64h-192c-32 0-64-32-64-64v-32h-128v160h64c32 0 64 32 64 64v128c0 32-32 64-64 64h-192c-32 0-64-32-64-64v-128c0-32 32-64 64-64h64v-518.4c0-12.8 12.8-25.6 25.6-25.6h166.4v-32c0-32 32-64 64-64h192c32 0 64 32 64 64v128c0 32-32 64-64 64h-192c-32 0-64-32-64-64v-32h-128v256h128v-32c0-32 32-64 64-64zM512 512h192v-128h-192v128zM192 704v128h192v-128h-192zM512 192h192v-128h-192v128z" />
<glyph unicode="&#xe92a;" glyph-name="control-MenuCheck" d="M403.2 192l-230.4 230.4 83.2 83.2 147.2-147.2 364.8 371.2 83.2-83.2z" />
<glyph unicode="&#xe92b;" glyph-name="ac-device_hub" d="M384 896c-35 0-64-29-64-64v-192c0-35 29-64 64-64h2.75l-192-192h-66.75c-35 0-64-29-64-64v-192c0-35 29-64 64-64h192c35 0 64 29 64 64v192c0 35-29 64-64 64h-34.75l192 192h5.5l192-192h-34.75c-35 0-64-29-64-64v-192c0-35 29-64 64-64h192c35 0 64 29 64 64v192c0 35-29 64-64 64h-66.75l-192 192h2.75c35 0 64 29 64 64v192c0 35-29 64-64 64zM384 832h192v-192h-192zM128 320h192v-192h-192zM640 320h192v-192h-192z" />
<glyph unicode="&#xe92c;" glyph-name="ac-keyboard_return, main-CancelClose" d="M928 179.2h96v320h-825.6l198.4 198.4-70.4 76.8-326.4-326.4 326.4-326.4 76.8 76.8-204.8 198.4h729.6c0 0 0-217.6 0-217.6z" />
<glyph unicode="&#xe92d;" glyph-name="ac-payment" d="M160 768c-52.75 0-96-43.25-96-96v-448c0-52.5 43.25-96 96-96h704c52.75 0 96 43.25 96 96v448c0 52.75-43.5 96-96 96zM160 704h704c18 0 32-14 32-32v-32h-768v32c0 18.25 13.75 32 32 32zM128 576h768v-352c0-18-14-32-32-32h-704c-18 0-32 14-32 32z" />
<glyph unicode="&#xe92e;" glyph-name="ac-vertical_align_top" d="M160 896c-51.2 0-96-44.8-96-96v-704c0-51.2 44.8-96 96-96h704c51.2 0 96 44.8 96 96v704c0 51.2-44.8 96-96 96h-704zM160 832h704c19.2 0 32-12.8 32-32v-704c0-19.2-12.8-32-32-32h-704c-19.2 0-32 12.8-32 32v704c0 19.2 12.8 32 32 32zM256 768v-64h512v64h-512zM320 640v-64h384v64h-384zM256 512v-64h512v64h-512z" />
<glyph unicode="&#xe92f;" glyph-name="ac-save, main-RecordSave, main-Save" d="M166.4 896c-57.6 0-102.4-44.8-102.4-102.4v-691.2c0-57.6 44.8-102.4 102.4-102.4h691.2c57.6 0 102.4 44.8 102.4 102.4v601.6l-192 192h-601.6zM166.4 832h25.6v-192c0-32 32-64 64-64h448c32 0 64 32 64 64v160l128-128v-569.6c0-19.2-19.2-38.4-38.4-38.4h-89.6v192c0 32-32 64-64 64h-384c-32 0-64-32-64-64v-192h-89.6c-19.2 0-38.4 19.2-38.4 38.4v691.2c0 19.2 19.2 38.4 38.4 38.4zM256 832h256v-128h128v128h64v-192h-448v192zM320 256h384v-192h-384v192z" />
<glyph unicode="&#xe930;" glyph-name="ac-delete, main-Remove" d="M416 896c-51.2 0-96-44.8-96-96v-32h-192v-64h64v-672c0-51.2 44.8-96 96-96h448c51.2 0 96 44.8 96 96v672h64v64h-192v32c0 51.2-44.8 96-96 96h-192zM416 832h192c19.2 0 32-12.8 32-32v-32h-256v32c0 19.2 12.8 32 32 32zM256 704h512v-672c0-19.2-12.8-32-32-32h-448c-19.2 0-32 12.8-32 32v672zM384 576v-448h64v448h-64zM576 576v-448h64v448h-64z" />
<glyph unicode="&#xe931;" glyph-name="main-AddNew, main-RecordAdd, ac-add" d="M960 396.8h-396.8v-396.8h-102.4v396.8h-396.8v102.4h396.8v396.8h96v-396.8h403.2v-102.4z" />
<glyph unicode="&#xe932;" glyph-name="main-Settings" d="M448 896v-134.4c-38.4-6.4-76.8-25.6-108.8-44.8l-96 96-96-96 96-96c-19.2-32-38.4-70.4-44.8-108.8h-134.4v-128h134.4c6.4-38.4 25.6-76.8 44.8-108.8l-96-96 89.6-89.6 96 96c32-25.6 70.4-38.4 108.8-44.8v-140.8h128v134.4c38.4 6.4 76.8 25.6 108.8 44.8l96-96 89.6 89.6-96 96c19.2 32 38.4 70.4 44.8 108.8h147.2v134.4h-134.4c-6.4 38.4-25.6 76.8-44.8 108.8l96 96-89.6 89.6-96-96c-38.4 25.6-76.8 44.8-115.2 51.2v134.4h-128zM512 640c51.2 0 96-19.2 134.4-51.2l6.4-6.4c32-38.4 51.2-83.2 51.2-134.4s-19.2-96-51.2-134.4l-6.4-6.4c-38.4-32-83.2-51.2-134.4-51.2s-96 19.2-134.4 51.2l-6.4 6.4c-32 38.4-51.2 83.2-51.2 134.4s19.2 96 51.2 134.4l6.4 6.4c38.4 32 83.2 51.2 134.4 51.2z" />
<glyph unicode="&#xe933;" glyph-name="main-Release, main-Process, main-ProcessF, ac-play_circle_filled" d="M256 64l556.8 384-556.8 384v-768z" />
<glyph unicode="&#xe934;" glyph-name="main-Filter, ac-filter_list, ac-no_filter, ac-filter_none" d="M938.464 832h-855.062c-19.143 0-25.524-12.8-12.762-32l293.529-320c44.667-44.8 51.048-83.2 51.048-147.2v-268.8h197.813v268.8c0 64 6.381 102.4 51.048 147.2l293.529 320c6.381 12.8 0 32-19.143 32v0zM817.224 748.8l-204.194-224c-44.667-51.2-63.811-70.4-63.811-147.2v-249.6h-70.192v249.6c0 70.4-31.905 108.8-70.192 147.2l-197.813 224c-12.762 12.8-6.381 19.2 6.381 19.2h587.058c12.762 0 12.762-12.8 12.762-19.2v0z" />
<glyph unicode="&#xe935;" glyph-name="ac-todo" d="M512 512h448v-94.815h-448v94.815zM512 192h448v-94.815h-448v94.815zM223.246 743.332l167.987 152.668 56.766-51.62-224.754-204.38-159.246 144.811 56.867 51.712 102.38-93.191zM223.246 423.332l167.987 152.668 56.766-51.62-224.754-204.38-159.246 144.811 56.867 51.712 102.38-93.191zM512 832h448v-94.815h-448v94.815z" />
<glyph unicode="&#xe936;" glyph-name="ac-access_alarm" d="M204.8 896c-76.8 0-140.8-64-140.8-140.8 0-44.8 19.2-76.8 51.2-102.4-32-64-51.2-128-51.2-204.8 0-128 57.6-249.6 147.2-332.8 0 0-6.4-6.4-6.4-6.4l-70.4-115.2c-6.4-12.8-6.4-32 0-44.8s19.2-12.8 32-12.8c12.8 0 25.6 12.8 32 25.6l64 115.2c70.4-51.2 160-76.8 249.6-76.8s179.2 25.6 249.6 76.8l64-115.2c6.4-12.8 19.2-25.6 32-25.6s25.6 6.4 32 12.8c6.4 12.8 6.4 32 0 38.4l-70.4 121.6c0 0 0 6.4-6.4 6.4 89.6 83.2 147.2 204.8 147.2 332.8 0 76.8-19.2 140.8-51.2 204.8 32 25.6 51.2 64 51.2 102.4 0 76.8-64 140.8-140.8 140.8-44.8 0-76.8-19.2-102.4-51.2-64 32-128 51.2-204.8 51.2s-140.8-19.2-204.8-51.2c-25.6 32-64 51.2-102.4 51.2zM204.8 825.6c19.2 0 32-6.4 44.8-19.2-38.4-25.6-70.4-57.6-96-96-12.8 12.8-19.2 32-19.2 44.8 0 38.4 32 70.4 70.4 70.4zM512 825.6c211.2 0 377.6-166.4 377.6-377.6s-166.4-377.6-377.6-377.6-377.6 166.4-377.6 377.6 166.4 377.6 377.6 377.6zM819.2 825.6c38.4 0 70.4-32 70.4-70.4 0-19.2-6.4-32-19.2-44.8-25.6 38.4-57.6 70.4-96 96 12.8 12.8 32 19.2 44.8 19.2zM480 755.2v-345.6h204.8v70.4h-140.8v275.2h-64z" />
<glyph unicode="&#xe937;" glyph-name="ac-access_time, main-Meeting, control-History" d="M512 896c-249.6 0-448-198.4-448-448s198.4-448 448-448 448 198.4 448 448-198.4 448-448 448zM512 825.6c211.2 0 377.6-166.4 377.6-377.6s-166.4-377.6-377.6-377.6-377.6 166.4-377.6 377.6 166.4 377.6 377.6 377.6zM480 755.2v-345.6h204.8v70.4h-140.8v275.2h-64z" />
<glyph unicode="&#xe938;" glyph-name="ac-watch_later" d="M512 896c-249.6 0-448-198.4-448-448s198.4-448 448-448 448 198.4 448 448-198.4 448-448 448zM684.8 409.6h-204.8v345.6h64v-275.2h140.8v-70.4z" />
<glyph unicode="&#xe939;" glyph-name="main-Shedule, ac-update" d="M480 896v-204.8h70.4v128c192-19.2 345.6-172.8 345.6-371.2 0-211.2-166.4-377.6-377.6-377.6s-384 166.4-384 377.6c0 70.4 19.2 140.8 57.6 198.4l-64 32c-38.4-64-64-147.2-64-230.4 0-249.6 198.4-448 448-448s448 198.4 448 448-198.4 448-448 448h-32zM307.2 691.2c-12.8 0-25.6-6.4-32-19.2-6.4-19.2-6.4-32 6.4-38.4l204.8-204.8c12.8-12.8 25.6-19.2 32-12.8 12.8 6.4 19.2 12.8 25.6 25.6 0 12.8 0 25.6-12.8 32l-204.8 204.8c-6.4 6.4-12.8 12.8-19.2 12.8z" />
<glyph unicode="&#xe93a;" glyph-name="ac-calendar" d="M448.589 896c-13.358 0-26.716-6.679-33.395-20.037s-6.679-26.716 0-33.395c6.679-13.358 20.037-20.037 33.395-20.037h33.395v-73.468c-200.368-20.037-353.984-187.010-353.984-394.057 0-213.726 173.652-394.057 394.057-394.057s394.057 180.331 394.057 394.057c0 93.505-33.395 187.010-93.505 253.8l80.147 80.147c13.358 13.358 13.358 26.716 6.679 40.074s-20.037 20.037-33.395 20.037c-6.679 0-20.037-6.679-26.716-13.358l-80.147-80.147c-60.11 46.753-133.579 80.147-213.726 93.505v73.468h33.395c13.358 0 26.716 6.679 33.395 20.037s6.679 26.716 0 33.395c-6.679 13.358-13.358 20.037-26.716 20.037h-146.937zM519.472 690.929c187.73 0 333.742-152.965 333.742-333.742s-152.965-333.742-333.742-333.742c-180.777 0-333.742 152.965-333.742 333.742s146.012 333.742 333.742 333.742zM513.963 611.946c-17.546 0-29.244-13.212-29.244-33.030v-211.389c0-13.212 5.849-26.424 17.546-33.030s23.395-6.606 29.244 0c11.697 6.606 17.546 19.818 17.546 33.030v211.389c0 6.606-5.849 19.818-11.697 26.424-5.849 0-17.546 6.606-23.395 6.606z" />
<glyph unicode="&#xe93b;" glyph-name="ac-shopping_cart" d="M64 896.5v-64h128c13.75 0 25.5-9 30-22l59.75-533.25c5.5-48.25 47-85.25 95.5-85.25h390.75v64h-390.75c-16.5 0-30 12-31.75 28.25l-4 35.75h406c45.5 0 85.25 32.5 94.25 77l61.25 307h-604.75l-13.75 122-1 3c-12.25 40-49.5 67.25-91.5 67.5zM704 192c-35.25 0-64-28.75-64-64s28.75-64 64-64c35.25 0 64 28.75 64 64s-28.75 64-64 64zM384 192c-35.25 0-64-28.75-64-64s28.75-64 64-64c35.25 0 64 28.75 64 64s-28.75 64-64 64zM305.5 640h519.5l-46-230.25c-3.25-15.25-16-25.75-31.5-25.75h-413.25z" />
<glyph unicode="&#xe93c;" glyph-name="ac-event_note, ac-date_range" d="M160 832c-51.2 0-96-44.8-96-96v-640c0-51.2 44.8-96 96-96h704c51.2 0 96 44.8 96 96v640c0 51.2-44.8 96-96 96h-704zM160 640h704c19.2 0 32-12.8 32-32v-512c0-19.2-12.8-32-32-32h-704c-19.2 0-32 12.8-32 32v512c0 19.2 12.8 32 32 32zM812.8 832v76.8c0 25.6-19.2 51.2-51.2 51.2-25.6 0-51.2-19.2-51.2-51.2v-76.8h102.4zM313.6 832v76.8c0 25.6-19.2 51.2-51.2 51.2-25.6 0-51.2-19.2-51.2-51.2v-76.8h102.4zM448 512v-64h115.2l-115.2-256h70.4l121.6 268.8v51.2h-192z" />
<glyph unicode="&#xe93d;" glyph-name="ac-add_shopping_cart" d="M64 896v-64h128c13.75 0 25.5-9 30-22l59.75-533c5.5-48.5 47-85.25 95.5-85.25-32.5-3.5-57.25-31-57.25-63.75 0-35.25 28.75-64 64-64s64 28.75 64 64c0 32.75-25 60.25-57.5 63.75h306.75c-32.5-3.5-57.25-31-57.25-63.75 0-35.25 28.75-64 64-64s64 28.75 64 64c0 32.75-25 60.25-57.75 63.75h57.75v64h-390.75c-16.5 0-30 11.75-31.75 28.25l-4 36h406c45.5 0 85.25 32.5 94.25 77l61.25 307h-71v-29l-53-265.25c-3.25-15.25-16-25.75-31.5-25.75h-413.5l-49.5 441.5-1 3c-12.25 40-49.5 67.5-91.5 67.5zM512 832v-128h-128v-64h128v-128h64v128h128v64h-128v128z" />
<glyph unicode="&#xe93e;" glyph-name="ac-settings, main-SettingsF" d="M547 839.996l11.76-77.28c3.177-21.020 17.982-38.429 38.22-44.94 15.072-4.705 29.728-10.652 43.82-17.78 19.113-9.857 42.182-7.899 59.36 5.040l60.9 45.92c17.64-16.38 36.68-34.44 51.94-51.8l-11.76-14.98c-11.34-14-23.1-29.4-34.44-45.080-12.508-17.309-14.081-40.223-4.060-59.080 8.231-15.311 14.937-31.394 20.020-48.020 6.264-20.605 23.792-35.79 45.080-39.060l76.16-11.62v-70l-76.58-11.62c-20.583-3.128-37.73-17.419-44.52-37.1-5.014-15.128-11.337-29.791-18.9-43.82-10.25-18.638-9.056-41.473 3.080-58.94 15.68-22.54 31.92-43.4 47.46-62.58-15.26-16.8-36.54-38.64-52.36-52.92l-59.78 46.76c-17.249 13.469-40.762 15.657-60.2 5.6-14.312-7.401-29.2-13.628-44.52-18.62-20.924-6.724-35.982-25.066-38.5-46.9l-1.54-13.16c-2.38-20.72-4.76-42-8.4-62.16h-72.24l-11.76 77.279c-3.177 21.020-17.982 38.429-38.22 44.94-15.077 4.751-29.734 10.744-43.82 17.92-19.213 9.935-42.428 7.919-59.64-5.18l-60.34-45.78c-18.060 16.52-37.24 34.44-52.5 51.66l11.9 15.12c11.34 14 23.1 29.4 34.44 45.080 12.508 17.309 14.081 40.223 4.060 59.080-8.196 15.294-14.811 31.382-19.74 48.020-6.148 20.946-23.907 36.41-45.5 39.62l-75.88 10.64v70l76.58 11.48c21.18 3.198 38.68 18.198 45.080 38.64 4.705 15.292 10.845 30.105 18.34 44.24 9.929 18.696 8.465 41.392-3.78 58.66-15.54 21.98-31.5 42-47.040 61.88 14.98 16.52 36.12 38.22 51.94 52.36l60.34-46.76c17.247-13.364 40.686-15.496 60.060-5.46 14.312 7.401 29.2 13.628 44.52 18.62 20.924 6.724 35.982 25.066 38.5 46.9l1.54 13.16c2.38 20.72 4.76 42 8.4 62.16h72.52v-0.14zM512 242.619c113.428 0 205.38 91.951 205.38 205.379s-91.952 205.379-205.38 205.379c-113.428 0-205.38-91.951-205.38-205.379 0.076-113.395 91.984-205.303 205.38-205.379zM576.82 895.995h-129.5c-9.956 0.084-18.657-6.702-21-16.38-8.246-35.712-13.908-71.973-16.94-108.499-18.261-5.914-36.006-13.311-53.060-22.12l-80.5 63c-4.542 3.47-10.104 5.34-15.82 5.32-19.88 0-98-85.119-112-104.439-3.256-3.948-5.083-8.882-5.18-14 0.258-4.747 2.080-9.274 5.18-12.88 21.56-26.32 42-52.5 62.44-80.499-9.236-17.116-16.83-35.071-22.68-53.62l-107.94-16.94c-9.232-2.88-15.599-11.331-15.82-21v-129.499c0.184-9.932 7.215-18.416 16.94-20.44l106.82-15.82c6.006-20.032 14.027-39.404 23.94-57.82-19.88-28-42-53.060-61.18-79.939-3.105-3.996-4.738-8.94-4.62-14-0.224-4.987 1.203-9.906 4.060-14 28.944-35.63 61.196-68.442 96.32-97.999 3.674-3.856 8.683-6.159 14-6.44 5.121 0.076 10.062 1.903 14 5.18l83.72 63.28c16.874-8.627 34.432-15.839 52.5-21.56l16.38-107.379c1.637-10.035 10.272-17.428 20.44-17.5h129.5c9.956-0.084 18.657 6.702 21 16.38 8.247 35.712 13.908 71.973 16.94 108.499 18.261 5.914 36.006 13.311 53.060 22.12l80.5-63c4.457-3.127 9.687-4.966 15.12-5.32 19.88 0 98 85.679 112 104.439 3.57 3.771 5.485 8.811 5.32 14-0.314 5.199-2.388 10.135-5.88 14-21.56 26.18-42 51.94-62.44 80.499 9.14 16.988 16.777 34.74 22.82 53.060l107.94 16.38c9.647 2.484 16.493 11.043 16.8 21v129.499c-0.184 9.932-7.215 18.416-16.94 20.44l-106.82 16.38c-6.124 19.764-14.144 38.893-23.94 57.12 19.88 28 42 53.060 61.18 79.939 3.105 3.996 4.738 8.94 4.62 14 0.19 4.636-1.245 9.19-4.060 12.88-28.811 36.168-60.966 69.544-96.040 99.679-3.865 3.492-8.801 5.564-14 5.88-5.26-0.031-10.296-2.145-14-5.88l-84-62.44c-16.874 8.627-34.432 15.838-52.5 21.56l-15.68 107.379c-1.671 10.246-10.62 17.704-21 17.5zM512 298.619c-82.5 0-149.38 66.88-149.38 149.379s66.88 149.379 149.38 149.379c82.5 0 149.38-66.88 149.38-149.379-0.154-82.436-66.943-149.225-149.38-149.379z" />
<glyph unicode="&#xe93f;" glyph-name="ac-notifications, main-Reminder" d="M512 832c108.8 0 256-115.2 256-224v-352c0 0 0-32 12.8-64v0h-544c19.2 32 19.2 64 19.2 64v352c0 108.8 147.2 224 256 224zM640 128c0-70.4-57.6-128-128-128s-128 57.6-128 128h64c0-38.4 25.6-64 64-64s64 25.6 64 64h64zM838.4 224c-6.4 12.8-6.4 32-6.4 32v352c0 121.6-102.4 256-256 281.6 0 0 0 0 0 0s0 6.4 0 6.4c0 38.4-25.6 64-64 64s-64-25.6-64-64c0 0 0-6.4 0-6.4s0 0 0 0c-153.6-38.4-256-160-256-281.6v-352c0 0 0-19.2-6.4-32-12.8-19.2-19.2-32-57.6-32v-64h768v64c-38.4 0-44.8 12.8-57.6 32z" />
<glyph unicode="&#xe940;" glyph-name="ac-event_add" d="M160 832c-51.2 0-96-44.8-96-96v-640c0-51.2 44.8-96 96-96h704c51.2 0 96 44.8 96 96v640c0 51.2-44.8 96-96 96h-704zM160 640h704c19.2 0 32-12.8 32-32v-512c0-19.2-12.8-32-32-32h-704c-19.2 0-32 12.8-32 32v512c0 19.2 12.8 32 32 32zM812.8 832v76.8c0 25.6-19.2 51.2-51.2 51.2-25.6 0-51.2-19.2-51.2-51.2v-76.8h102.4zM313.6 832v76.8c0 25.6-19.2 51.2-51.2 51.2-25.6 0-51.2-19.2-51.2-51.2v-76.8h102.4zM480 512v-128h-128v-64h128v-128h64v128h128v64h-128v128h-64z" />
<glyph unicode="&#xe941;" glyph-name="ac-event_available" d="M716.8 512l-243.2-243.2-108.8 115.2-44.8-44.8 160-160 288 288-51.2 44.8zM160 832c-51.2 0-96-44.8-96-96v-640c0-51.2 44.8-96 96-96h704c51.2 0 96 44.8 96 96v640c0 51.2-44.8 96-96 96h-704zM160 640h704c19.2 0 32-12.8 32-32v-512c0-19.2-12.8-32-32-32h-704c-19.2 0-32 12.8-32 32v512c0 19.2 12.8 32 32 32zM812.8 832v76.8c0 25.6-19.2 51.2-51.2 51.2-25.6 0-51.2-19.2-51.2-51.2v-76.8h102.4zM313.6 832v76.8c0 25.6-19.2 51.2-51.2 51.2-25.6 0-51.2-19.2-51.2-51.2v-76.8h102.4z" />
<glyph unicode="&#xe942;" glyph-name="ac-menu" d="M960 704h-896v64h896v-64zM960 512v-64h-896v64h896zM960 256v-64h-896v64h896z" />
<glyph unicode="&#xe943;" glyph-name="ac-event, control-Event" d="M243.2 832h537.6c98.969 0 179.2-78.798 179.2-176v-416c0-97.202-80.231-176-179.2-176h-537.6c-98.969 0-179.2 78.798-179.2 176v416c0 97.202 80.231 176 179.2 176zM246.154 768c-65.255 0-118.154-51.577-118.154-115.2v-409.6c0-63.623 52.899-115.2 118.154-115.2h531.692c65.255 0 118.154 51.577 118.154 115.2v409.6c0 63.623-52.899 115.2-118.154 115.2h-531.692zM326.4 640h51.2c3.535 0 6.4-2.865 6.4-6.4v-51.2c0-3.535-2.865-6.4-6.4-6.4h-51.2c-3.535 0-6.4 2.865-6.4 6.4v51.2c0 3.535 2.865 6.4 6.4 6.4zM454.4 640h51.2c3.535 0 6.4-2.865 6.4-6.4v-51.2c0-3.535-2.865-6.4-6.4-6.4h-51.2c-3.535 0-6.4 2.865-6.4 6.4v51.2c0 3.535 2.865 6.4 6.4 6.4zM582.4 640h51.2c3.535 0 6.4-2.865 6.4-6.4v-51.2c0-3.535-2.865-6.4-6.4-6.4h-51.2c-3.535 0-6.4 2.865-6.4 6.4v51.2c0 3.535 2.865 6.4 6.4 6.4zM326.4 512h51.2c3.535 0 6.4-2.865 6.4-6.4v-51.2c0-3.535-2.865-6.4-6.4-6.4h-51.2c-3.535 0-6.4 2.865-6.4 6.4v51.2c0 3.535 2.865 6.4 6.4 6.4zM198.4 512h51.2c3.535 0 6.4-2.865 6.4-6.4v-51.2c0-3.535-2.865-6.4-6.4-6.4h-51.2c-3.535 0-6.4 2.865-6.4 6.4v51.2c0 3.535 2.865 6.4 6.4 6.4zM454.4 512h51.2c3.535 0 6.4-2.865 6.4-6.4v-51.2c0-3.535-2.865-6.4-6.4-6.4h-51.2c-3.535 0-6.4 2.865-6.4 6.4v51.2c0 3.535 2.865 6.4 6.4 6.4zM198.4 640h51.2c3.535 0 6.4-2.865 6.4-6.4v-51.2c0-3.535-2.865-6.4-6.4-6.4h-51.2c-3.535 0-6.4 2.865-6.4 6.4v51.2c0 3.535 2.865 6.4 6.4 6.4zM326.4 384h51.2c3.535 0 6.4-2.865 6.4-6.4v-51.2c0-3.535-2.865-6.4-6.4-6.4h-51.2c-3.535 0-6.4 2.865-6.4 6.4v51.2c0 3.535 2.865 6.4 6.4 6.4zM198.4 384h51.2c3.535 0 6.4-2.865 6.4-6.4v-51.2c0-3.535-2.865-6.4-6.4-6.4h-51.2c-3.535 0-6.4 2.865-6.4 6.4v51.2c0 3.535 2.865 6.4 6.4 6.4zM454.4 384h51.2c3.535 0 6.4-2.865 6.4-6.4v-51.2c0-3.535-2.865-6.4-6.4-6.4h-51.2c-3.535 0-6.4 2.865-6.4 6.4v51.2c0 3.535 2.865 6.4 6.4 6.4zM772.422 290.531c0 11.813-3.391 21.437-10.172 28.875s-18.411 14.365-34.891 20.781c-32.375 11.813-56.401 24.974-72.078 39.484s-23.516 34.963-23.516 61.359c0 24.5 7.838 44.588 23.516 60.266s33.205 24.464 59.747 27.234v47.469h38.363v-47.469c25.667-3.792 45.828-14.51 60.484-32.156s21.839-40.542 21.547-68.687l-0.656-1.094h-62.344c0 17.208-3.536 30.479-10.609 39.813s-16.734 14-28.984 14c-12.542 0-21.875-3.609-28-10.828s-9.188-16.807-9.188-28.766c0-11.375 3.245-20.599 9.734-27.672s18.411-14.036 35.766-20.891c32.229-12.688 56.109-26.25 71.641-40.688s23.297-34.635 23.297-60.594c0-25.375-7.802-45.646-23.406-60.812s-36.823-24.135-63.656-26.906v-43.312h-40.388v43.312c-27.271 2.771-44.196 12.213-61.988 28.766s-26.396 40.87-25.812 72.953l0.437 1.094h62.344c0-19.542 4.484-33.542 13.453-42s20.38-12.688 34.234-12.688c13.271 0 23.443 3.536 30.516 10.609s10.609 16.588 10.609 28.547z" />
<glyph unicode="&#xe944;" glyph-name="ac-insert_invitation" d="M160 832c-51.2 0-96-44.8-96-96v-640c0-51.2 44.8-96 96-96h704c51.2 0 96 44.8 96 96v640c0 51.2-44.8 96-96 96h-704zM160 640h704c19.2 0 32-12.8 32-32v-512c0-19.2-12.8-32-32-32h-704c-19.2 0-32 12.8-32 32v512c0 19.2 12.8 32 32 32zM812.8 832v76.8c0 25.6-19.2 51.2-51.2 51.2-25.6 0-51.2-19.2-51.2-51.2v-76.8h102.4zM313.6 832v76.8c0 25.6-19.2 51.2-51.2 51.2-25.6 0-51.2-19.2-51.2-51.2v-76.8h102.4zM576 384h192v-192h-192v192z" />
<glyph unicode="&#xe945;" d="M640 896h-512v-896h768v640l-256 256zM640 806.4l166.4-166.4h-166.4v166.4zM832 64h-640v768h384v-256h256v-512z" />
<glyph unicode="&#xe946;" d="M640 806.4l166.4-166.4h-166.4v166.4zM832 64h-640v768h384v-256h256v-512z" />
<glyph unicode="&#xe947;" glyph-name="ac-attach_money" d="M736.032 352c88.274 0 160.032-64.64 159.968-144 0-69.504-55.051-127.68-128.026-141.056v-66.944h-64.013v66.944c-67.213 12.288-118.68 62.848-126.425 125.056h64.397c8.962-36.48 47.754-64 94.099-64 52.939 0 96.019 35.904 96.019 80s-43.081 80-96.019 80c-88.274 0-160.032 64.64-160.032 144 0 69.568 55.051 127.744 128.026 141.12v66.88h64.013v-66.88c67.213-12.352 118.68-62.848 126.489-125.12h-64.397c-8.962 36.48-47.754 64-94.099 64-52.939 0-96.019-35.904-96.019-80s43.081-80 96.019-80zM288 675.563l160 220.437h64v-11.628l-192-266.878h128v-69.626h-128v-69.626h128v-69.626h-128v-139.253h-64v139.253h-128v69.626h128v69.626h-128v69.626h128l-192 266.878v11.628h64l160-220.437z" />
<glyph unicode="&#xe948;" glyph-name="ac-finance" d="M512 896c-248.123 0-448-199.877-448-448s199.877-448 448-448 448 199.877 448 448-199.877 448-448 448zM512 68.923c-206.77 0-379.077 172.307-379.077 379.077s172.307 379.077 379.077 379.077 379.077-172.307 379.077-379.077-172.307-379.077-379.077-379.077zM477.539 689.23v-34.461c-27.57 0-55.139-13.784-75.816-34.461-27.57-20.677-34.461-55.139-34.461-82.707s13.784-62.030 34.461-89.6 48.246-34.461 82.707-34.461h55.139c20.677 0 27.57-6.893 41.354-13.784s13.784-20.677 13.784-41.354-13.784-27.57-20.677-34.461-20.677-13.784-34.461-13.784h-68.923c-20.677 0-34.461 20.677-34.461 41.354v6.893h-68.923v-6.893c0-55.139 41.354-110.277 103.384-110.277h6.893v-34.461h68.923v34.461c27.57 0 55.139 13.784 75.816 34.461s34.461 55.139 34.461 89.6-6.893 62.030-34.461 82.707-48.246 34.461-82.707 34.461h-55.139c-13.784 0-27.57 6.893-34.461 13.784s-13.784 20.677-13.784 41.354 6.893 27.57 13.784 41.354 20.677 13.784 41.354 13.784h41.354c20.677 0 41.354-20.677 41.354-41.354v-6.893h68.923c0 55.139-41.354 103.384-96.493 110.277v34.461h-68.923z" />
<glyph unicode="&#xe949;" glyph-name="ac-account_balance" d="M435.2 102.4c-25.6 0-51.2 12.8-70.4 19.2-19.2 12.8-38.4 25.6-57.6 44.8-12.8 19.2-25.6 38.4-38.4 57.6-6.4 19.2-12.8 44.8-12.8 64v12.8h76.8c0-25.6 6.4-51.2 12.8-70.4s19.2-32 32-44.8c12.8-12.8 32-19.2 44.8-19.2 19.2-6.4 32-6.4 44.8-6.4 38.4 0 76.8 12.8 96 38.4 25.6 25.6 38.4 57.6 38.4 96 0 25.6-6.4 51.2-12.8 64-6.4 19.2-19.2 38.4-32 44.8-12.8 12.8-32 19.2-44.8 25.6-19.2 6.4-32 6.4-44.8 12.8-12.8 0-32 6.4-51.2 12.8s-38.4 19.2-57.6 32c-19.2 12.8-38.4 32-51.2 51.2-12.8 25.6-19.2 51.2-25.6 89.6 0 44.8 12.8 89.6 38.4 121.6s64 57.6 108.8 64v83.2h83.2v-83.2c32-6.4 64-12.8 83.2-32 19.2-12.8 38.4-32 51.2-51.2s19.2-38.4 25.6-57.6c6.4-19.2 6.4-38.4 6.4-51.2h-76.8v6.4c0 12.8 0 32-6.4 44.8s-12.8 25.6-25.6 38.4c-6.4 12.8-25.6 19.2-38.4 25.6-19.2 6.4-32 12.8-57.6 12.8-12.8 0-32 0-44.8-6.4s-25.6-12.8-32-25.6c-12.8-6.4-19.2-19.2-25.6-38.4-6.4-12.8-12.8-32-12.8-51.2s6.4-38.4 12.8-51.2c12.8-12.8 19.2-25.6 32-32 12.8-12.8 25.6-19.2 44.8-25.6 12.8 0 25.6-6.4 44.8-12.8 12.8-6.4 32-6.4 51.2-19.2 19.2-6.4 44.8-19.2 64-32s38.4-38.4 57.6-64 25.6-57.6 25.6-96c0-19.2-6.4-44.8-12.8-64s-19.2-44.8-32-64c-12.8-19.2-32-32-51.2-44.8s-44.8-19.2-76.8-25.6v-96h-83.2v102.4z" />
<glyph unicode="&#xe94a;" glyph-name="ac-banking" d="M160 896c-51.2 0-96-44.8-96-96v-704c0-51.2 44.8-96 96-96h704c51.2 0 96 44.8 96 96v704c0 51.2-44.8 96-96 96h-704zM160 832h704c19.2 0 32-12.8 32-32v-704c0-19.2-12.8-32-32-32h-704c-19.2 0-32 12.8-32 32v704c0 19.2 12.8 32 32 32zM480 672v-32c-25.6 0-44.8-12.8-64-32s-32-51.2-32-83.2 12.8-57.6 32-76.8c19.2-19.2 51.2-32 83.2-32h51.2c19.2 0 25.6-6.4 38.4-12.8s6.4-19.2 6.4-32c0-19.2-6.4-25.6-12.8-38.4s-19.2-12.8-38.4-12.8h-64c-19.2 0-32 19.2-32 38.4v12.8h-64v-6.4c0-57.6 38.4-108.8 96-108.8v-32h64v32c32 0 57.6 12.8 83.2 32s32 51.2 32 83.2c0 32-12.8 57.6-32 83.2-25.6 12.8-51.2 25.6-83.2 25.6h-44.8c-19.2 0-25.6 6.4-38.4 12.8s-12.8 19.2-12.8 32 6.4 25.6 12.8 38.4c6.4 6.4 19.2 12.8 38.4 12.8h38.4c19.2 0 38.4-19.2 38.4-38.4v-6.4h64v6.4c0 51.2-44.8 96-96 102.4v32h-64z" />
<glyph unicode="&#xe94b;" glyph-name="ac-apps" d="M832 192c0-38.4-25.6-64-64-64s-64 25.6-64 64c0 38.4 25.6 64 64 64s64-25.6 64-64zM832 448c0-38.4-25.6-64-64-64s-64 25.6-64 64c0 38.4 25.6 64 64 64s64-25.6 64-64zM576 704c0-38.4-25.6-64-64-64s-64 25.6-64 64c0 38.4 25.6 64 64 64s64-25.6 64-64zM768 640c-38.4 0-64 25.6-64 64s25.6 64 64 64c38.4 0 64-25.6 64-64s-25.6-64-64-64zM576 448c0-38.4-25.6-64-64-64s-64 25.6-64 64c0 38.4 25.6 64 64 64s64-25.6 64-64zM320 448c0-38.4-25.6-64-64-64s-64 25.6-64 64c0 38.4 25.6 64 64 64s64-25.6 64-64zM320 192c0-38.4-25.6-64-64-64s-64 25.6-64 64c0 38.4 25.6 64 64 64s64-25.6 64-64zM576 192c0-38.4-25.6-64-64-64s-64 25.6-64 64c0 38.4 25.6 64 64 64s64-25.6 64-64zM320 704c0-38.4-25.6-64-64-64s-64 25.6-64 64c0 38.4 25.6 64 64 64s64-25.6 64-64z" />
<glyph unicode="&#xe94c;" glyph-name="ac-message" d="M160 832c-51.2 0-96-44.8-96-96v-512c0-51.2 44.8-96 96-96h371.2l236.8-153.6v153.6h96c51.2 0 96 44.8 96 96v512c0 51.2-44.8 96-96 96h-704zM160 768h704c19.2 0 32-12.8 32-32v-512c0-19.2-12.8-32-32-32h-160v-102.4l-147.2 102.4h-396.8c-19.2 0-32 12.8-32 32v512c0 19.2 12.8 32 32 32zM256 640v-64h512v64h-512zM256 512v-64h512v64h-512zM256 384v-64h320v64h-320z" />
<glyph unicode="&#xe94d;" glyph-name="ac-miscellaneous" d="M500.5 895.75c-56-2.5-109.5-23-153.25-59.75-58-48.75-91.25-120.5-91.25-196 0-17.75 14.25-32 32-32h128c17.75 0 32 14.25 32 32 0 19 8.25 36.75 22.75 49 0 0 0 0 0.25 0 15.25 13 32 17.5 53.5 14 27.25-4.75 52.25-35.5 51.5-65-0.5-15.75-5.75-24.5-13.5-32.5-7.5-8-18.25-14-26.5-17.5-50.5-21-89-45.75-115-80-26-34-37-76.25-37-124v-32c0-17.75 14.25-32 32-32h128c17.75 0 32 14.25 32 32v32c0 5.75 0.25 8.25 0.5 9.75 0 0 8.5 6.75 33 16.75 0.25 0.25 0.25 0.25 0 0.25 94.25 39 155.25 123 158.5 221.25 3.75 125.5-87.75 238.75-210.5 260-0.25 0.25-0.25 0.25-0.25 0-19 3.5-38 4.5-56.75 3.75zM503 832c14.25 0.5 28.75-0.5 43.5-3 90-15.5 160.25-102.25 157.5-195-2.25-73.5-45-133.5-119-164-27.75-11.75-45-19.25-59-36-6.75-8.25-11.25-19-12.75-27.75s-1.25-15.75-1.25-22.25h-64c0 38.5 7.5 63.75 24 85.5 16.5 21.5 44 41 88.5 59.5 13.75 5.5 32 15.25 48.5 32.25 16.25 17 30 43 31 74.75 1.75 62.75-42.75 119.25-104.5 130-38 6.5-76.75-3.5-106-28-19.5-16.5-23.5-42-30.5-66h-72c7.75 44.25 26.5 85.5 61.5 115 33 28 72.25 43.25 114.5 45zM416 256c-17.75 0-32-14.25-32-32v-128c0-17.75 14.25-32 32-32h128c17.75 0 32 14.25 32 32v128c0 17.75-14.25 32-32 32zM448 192h64v-64h-64z" />
<glyph unicode="&#xe94e;" glyph-name="main-Chat" d="M160 832c-52.75 0-96-43.25-96-96v-320c0-52.75 43.25-96 96-96h95.5v-128l171 128h181.5c52.75 0 96 43.25 96 96v320c0 52.75-43.25 96-96 96zM160 768h448c18 0 32-14 32-32v-320c0-18-14-32-32-32h-203l-85.5-64v64h-159.5c-18 0-32 14-32 32v320c0 18 14 32 32 32zM192 704v-64h384v64zM768 640v-64h96c18 0 32-14 32-32v-320c0-18-14-32-32-32h-159.75v-64l-85.25 64h-203c-12.75 0-23.75 7.75-29 18.75l-51.5-38.75c17.25-26.5 46.75-44 80.5-44h181.5l170.75-128v128h95.75c52.75 0 96 43.25 96 96v320c0 52.75-43.25 96-96 96zM192 576v-64h256v64zM768 512v-64h64v64zM768 384v-64h64v64z" />
<glyph unicode="&#xe94f;" glyph-name="main-Dashboard" d="M224 832c-52.75 0-96-43.25-96-96v-160h768v160c0 52.75-43.25 96-96 96zM224 768h576c18 0 32-14 32-32v-96h-640v96c0 18 14 32 32 32zM128 512v-448h448v448zM640 512v-448h256v448zM192 448h320v-320h-320zM704 448h128v-320h-128z" />
<glyph unicode="&#xe950;" glyph-name="main-Copy, text-Copy" d="M576 0v128c0 70.692 57.308 128 128 128h128v384c0 35.346-28.654 64-64 64h-512c-35.346 0-64-28.654-64-64v-576c0-35.346 28.654-64 64-64h320zM812.8 192h-108.8c-35.346 0-64-28.654-64-64v-108.8l172.8 172.8zM640 768c0 115.2-256 115.2-256 0 64 0 192 0 256 0zM256 768c42.667 0 21.333 0 64 0 0 192 384 192 383.274 0 26.045 0 47.62 0 64.726 0 70.692 0 128-57.308 128-128v-448l-256-256h-384c-70.692 0-128 57.308-128 128v576c0 70.692 57.308 128 128 128z" />
<glyph unicode="&#xe951;" glyph-name="main-Paste, ac-content_paste, text-Paste" d="M480 960c-38.4 0-76.8-25.6-89.6-64h-230.4c-51.2 0-96-44.8-96-96v-704c0-51.2 44.8-96 96-96h352c0-38.4 25.6-64 64-64h320c38.4 0 64 25.6 64 64v384c0 32-25.6 64-64 64v0 352c0 51.2-44.8 96-96 96h-230.4c-12.8 38.4-51.2 64-89.6 64zM480 896c19.2 0 32-12.8 32-32v-32h128v-64h-320v64h128v32c0 19.2 12.8 32 32 32zM160 832h96v-128h448v128h96c19.2 0 32-12.8 32-32v-352h-256c-38.4 0-64-25.6-64-64v-320h-352c-19.2 0-32 12.8-32 32v704c0 19.2 12.8 32 32 32zM576 384h320v-384h-320v384z" />
<glyph unicode="&#xe952;" glyph-name="ac-content_cut, main-Cut, text-Cut" d="M192 767.75c-32.75 0-65.75-12.5-90.5-37.25-49.75-49.75-49.75-131.25 0-181s131.25-49.75 181 0c4.75 4.75 8.75 10 12.5 15.5l175.5-116.75-175.5-117.25c-3.75 5.5-7.75 10.75-12.5 15.5-49.75 49.75-131.25 49.75-181 0s-49.75-131.25 0-181c49.75-49.75 131.25-49.75 181 0 28.5 28.5 40 67 36 104.5l210 139.75 327.5-217.75h104l-641.5 434c4 37.25-7.5 76-36 104.5-24.75 24.75-57.75 37.25-90.5 37.25zM192 704.25c16.25 0 32.5-6.25 45.25-19 25.25-25.25 25.25-65.25 0-90.5s-65.25-25.25-90.5 0c-25.25 25.25-25.25 65.25 0 90.5 12.75 12.75 29 19 45.25 19zM856 704l-270.5-179 57.75-38.5 316.75 217.5zM192 320.25c16.25 0 32.5-6.25 45.25-19 25.25-25.25 25.25-65.25 0-90.5s-65.25-25.25-90.5 0c-25.25 25.25-25.25 65.25 0 90.5 12.75 12.75 29 19 45.25 19z" />
<glyph unicode="&#xe953;" glyph-name="ac-delete_forever" d="M396.8 512l-44.8-44.8 115.2-115.2-115.2-115.2 44.8-44.8 115.2 115.2 115.2-115.2 44.8 44.8-115.2 115.2 115.2 115.2-44.8 44.8-115.2-115.2-115.2 115.2zM416 896c-51.2 0-96-44.8-96-96v-32h-192v-64h64v-672c0-51.2 44.8-96 96-96h448c51.2 0 96 44.8 96 96v672h64v64h-192v32c0 51.2-44.8 96-96 96h-192zM416 832h192c19.2 0 32-12.8 32-32v-32h-256v32c0 19.2 12.8 32 32 32zM256 704h512v-672c0-19.2-12.8-32-32-32h-448c-19.2 0-32 12.8-32 32v672z" />
<glyph unicode="&#xe954;" glyph-name="ac-life-bouy" d="M896 576h-64c-26.267 147.204-147.318 254.043-319.514 255.98-92.421 0.968-182.897-33.896-245.16-95.876-44.751-43.58-64.625-98.782-75.327-159.794h-64c-32 0-64-32.31-64-64.31 0-42.667 0-85.333 0-128 0-32 32-64 64-64h64c1.946 0 0 0 10.145 0 14.593-92.003 92.421-176.587 189.707-208.546-2.919-4.842-3.891-9.684-3.891-15.495 0-17.432 14.593-31.959 32.104-31.959h123.553c17.511 0 32.104 14.527 32.104 31.959s-14.593 31.959-32.104 31.959h-123.553c-1.946 0-4.864 0-6.81-0.968-104.096 27.117-179.005 113.309-190.68 198.532 11.674 7.748 33.425 26.519 33.425 58.519v150.666c1.946 60.044 12.3 114.277 56.078 156.889 50.588 50.359 123.553 78.444 199.435 77.476 152.738-1.937 248.704-95.876 256.486-229.522 0-0.646 0-52.482 0-155.509 0-32 32-62.702 64-64h64c32 0 64 32 64 64v128c0 32-32 64-64 64zM192 384h-44.8c-12.8 0-19.2 6.4-19.2 19.2v89.6c0 12.8 6.4 19.2 19.2 19.2h44.8v-128zM896 403.2c0-12.8-6.4-19.2-19.2-19.2h-44.8v128h44.8c12.8 0 19.2-6.4 19.2-19.2v-89.6zM384 448c-35.346 0-64 28.654-64 64s28.654 64 64 64c35.346 0 64-28.654 64-64s-28.654-64-64-64zM640 448c-35.346 0-64 28.654-64 64s28.654 64 64 64c35.346 0 64-28.654 64-64s-28.654-64-64-64z" />
<glyph unicode="&#xe955;" glyph-name="ac-work" d="M416 896c-52.75 0-96-43.25-96-96v-32h-160c-52.75 0-96-43.25-96-96v-512c0-52.75 43.25-96 96-96h704c52.75 0 96 43.25 96 96v512c0 52.75-43.25 96-96 96h-160v32c0 52.75-43.25 96-96 96zM416 832h192c18 0 32-14 32-32v-32h-256v32c0 18 14 32 32 32zM160 704h704c18 0 32-14 32-32v-224h-128v64h-128v-64h-256v64h-128v-64h-128v224c0 18 14 32 32 32zM128 384h768v-224c0-18-14-32-32-32h-704c-18 0-32 14-32 32z" />
<glyph unicode="&#xe956;" glyph-name="ac-new_quote" d="M230.4 896c-51.2 0-102.4-51.2-102.4-102.4v-691.2c0-51.2 51.2-102.4 102.4-102.4h563.2c57.6 0 102.4 51.2 102.4 102.4v691.2c0 51.2-51.2 102.4-102.4 102.4h-563.2zM192 800c0 19.2 12.8 32 32 32h569.6c25.6 0 38.4-12.8 38.4-32v-704c0-19.2-12.8-32-32-32h-576c-19.2 0-32 6.4-32 25.6v710.4zM576 768v-64h-32c-51.2 0-96-44.8-96-96s44.8-96 96-96h128c19.2 0 32-12.8 32-32s-12.8-32-32-32h-224v-64h128v-64h64v64h32c51.2 0 96 44.8 96 96s-44.8 96-96 96h-128c-19.2 0-32 12.8-32 32s12.8 32 32 32h160v64h-64v64h-64zM256 256h64v-64h-64v64zM384 256h384v-64h-384v64zM256 384h64v-64h-64v64zM256 512h64v-64h-64v64zM256 640h64v-64h-64v64zM256 768h64v-64h-64v64z" />
<glyph unicode="&#xe957;" glyph-name="control-ClearN, control-ClearH, control-ClearP, control-ClearD" d="M512 507.733l238.933 238.933 59.733-59.733-238.933-238.933 238.933-238.933-59.733-59.733-238.933 238.933-238.933-238.933-59.733 59.733 238.933 238.933-238.933 238.933 59.733 59.733 238.933-238.933z" />
<glyph unicode="&#xe958;" glyph-name="ac-code" d="M938.667 448l-256-256-59.733 59.733 196.267 196.267-196.267 196.267 59.733 59.733 256-256zM401.067 644.267l-196.267-196.267 196.267-196.267-59.733-59.733-256 256 256 256 59.733-59.733z" />
<glyph unicode="&#xe959;" glyph-name="main-Folder, ac-folder_open" d="M160 832c-51.2 0-96-44.8-96-96v-576c0-51.2 44.8-96 96-96h704c51.2 0 96 44.8 96 96v448c0 51.2-44.8 96-96 96h-300.8l-44.8 76.8c-12.8 32-44.8 51.2-83.2 51.2h-275.2zM160 768h275.2c12.8 0 25.6-6.4 32-19.2l25.6-44.8h-364.8v32c0 19.2 12.8 32 32 32zM128 640h736c19.2 0 32-12.8 32-32v-448c0-19.2-12.8-32-32-32h-704c-19.2 0-32 12.8-32 32v480z" />
<glyph unicode="&#xe95a;" glyph-name="ac-pin" d="M384 768v-256l-76.8-89.6c-25.6-25.6-51.2-38.4-51.2-102.4v-64h224v-256h64v256h224v64c0 64-25.6 70.4-51.2 102.4l-76.8 89.6v256c19.2 64 0 128-64 128 0 0-102.4 0-128 0-64 0-83.2-64-64-128zM460.8 832c6.4 0 102.4 0 102.4 0 25.6 0 19.2-19.2 12.8-44.8v-294.4l96-102.4c19.2-19.2 32-32 32-57.6v-12.8h-384v12.8c0 25.6 19.2 38.4 32 57.6l96 102.4v294.4c-6.4 25.6-12.8 44.8 12.8 44.8z" />
<glyph unicode="&#xe95b;" glyph-name="ac-unpin" d="M192 320h256l89.6-76.8c25.6-25.6 38.4-51.2 102.4-51.2h64v224h256v64h-256v224h-64c-64 0-70.4-25.6-102.4-51.2l-89.6-76.8h-256c-64 19.2-128 0-128-64 0 0 0-102.4 0-128 0-64 64-83.2 128-64zM128 396.8c0 6.4 0 102.4 0 102.4 0 25.6 19.2 19.2 44.8 12.8h294.4l102.4 96c19.2 19.2 32 32 57.6 32h12.8v-384h-12.8c-25.6 0-38.4 19.2-57.6 32l-102.4 96h-294.4c-25.6-6.4-44.8-12.8-44.8 12.8z" />
<glyph unicode="&#xe95c;" glyph-name="ac-extension" d="M137.092 426.736c43.634-44.983 67.726-70.083 92.513-96.735 15.968-14.521 29.479-36.85 30.942-59.568 2.256-35.034-22.633-61.171-69.406-72.663-26.327-6.464-43.062-20.739-46.631-39.33-1.63-8.463-1.463-18.46 0.445-27.193 6.861-31.297 41.169-53.334 68.501-45.754 18.267 5.067 32.84 23.348 35.875 46.378 5.92 55.27 34.467 83.006 74.759 74.719 21.023-4.324 41.774-18.495 54.332-31.371 19.917-20.402 35.894-36.984 71.101-73.684 14.107-14.706 20.366-21.226 27.976-29.138 11.015-11.441 13.705-11.433 24.844 0.158 10.575 11.005 22.217 23.151 36.341 37.911 9.253 9.67 19.349 20.228 37.233 38.934 14 14.639 23.684 24.753 32.132 33.552 3.166 3.296 4.084 3.673 4.699 3.086-1.304 0.096-4.316 1.136-6.953 1.076-48.476-1.073-97.743 44.882-106.794 97.142-7.863 45.339 6.718 86.832 39.818 119.592 31.281 30.976 70.048 44.475 111.715 36.452 49.282-9.486 85.815-52.064 93.323-104.825 0.555-3.897 1.223-6.954 1.884-9.231 32.674 33.756 66.644 69.122 107.455 111.818 9.704 10.15 9.675 15.781-0.299 26.218-54.061 56.522-108.646 115.92-122.295 135.648-30.937 41.851-1.731 88.83 64.314 100.245 23.469 3.421 40.733 18.812 44.584 39.162 1.592 8.445 1.378 18.459-0.568 27.206-7.44 33.274-45.174 55.442-71.502 44.428-13.122-5.484-21.932-14.949-27.895-28.369-2.994-6.738-5.121-14.155-6.628-22.347-0.896-4.869-2.608-18.221-2.596-18.149-0.349-2.112-0.349-2.112-1.234-5.461-12.846-41.809-56.309-60.127-94.020-38.357-10.214 5.908-19.506 13.676-29.295 23.714-29.907 30.627-60.873 62.838-95.339 99.133-9.051 10.169-14.026 11.908-18.405 10.723-3.835-1.037-7.928-4.145-13.007-9.474-12.73-13.372-23.102-24.193-45.837-47.859-28.709-29.885-41.431-43.173-56.458-59.012-1.352-1.52-2.52-2.913-3.518-4.168 2.673-0.453 5.882-0.888 9.515-1.238 51.951-6.819 93.788-46.080 102.308-97.509 7.633-46.088-7.551-87.893-41.682-120.581-30.931-29.633-68.807-42.519-109.397-34.948-49.968 9.32-87.617 52.722-94.142 107.607-0.16 2.942-0.433 5.396-0.76 7.38-24.592-23.586-43.295-43.142-84.324-87.268-11.61-12.486-16.943-18.21-23.145-24.824-6.688-8.591-2.776-26.14 5.522-33.225zM237.614 577.456c-0.108 0.232-0.214 0.426-0.319 0.581 0.036-0.056 0.075-0.112 0.117-0.168l0.199-0.414zM747.444 321.926c0.128-0.211 0.25-0.382 0.364-0.518-0.041 0.048-0.084 0.097-0.13 0.144l-0.236 0.374zM680.185 769.954c2.218 12.058 5.477 23.425 10.363 34.417 11.204 25.213 29.541 44.914 56.2 56.057 58.439 24.452 130.057-17.625 144.499-82.208 3.513-15.781 3.881-33.131 0.924-48.827-8.262-43.649-44.147-75.645-88.822-82.146-30.274-5.237-33.461-10.363-29.653-15.525l2.684-4.5c2.081-4.424 69.407-77.951 115.262-125.895 29.7-31.078 29.898-69.342 0.302-100.3-41.095-42.994-75.282-78.585-108.214-112.604-9.025-9.312-24.881-17.942-41.295-18.12-28.055-0.304-46.491 21.469-51.646 57.617-4.429 31.132-24.746 54.812-50.388 59.747-23.452 4.516-44.633-2.86-63.869-21.91-21.026-20.81-29.48-44.867-24.714-72.346 4.747-27.41 32.349-53.157 52.778-52.705 19.938 0.451 40.791-8.491 52.396-24.441 15.512-21.321 11.135-48.143-10.279-70.439-8.416-8.765-18.079-18.859-32.057-33.473-17.879-18.699-27.984-29.267-36.521-38.19-14.87-15.541-26.537-27.713-37.142-38.749-32.18-33.49-69.959-33.59-102.119-0.185-7.641 7.942-13.911 14.477-27.377 28.514-35.755 37.273-51.66 53.779-71.441 74.042-5.765 5.911-18.488 14.6-26.764 16.301-5.522-2.773-8.927-11.709-10.74-28.562-5.807-44.17-34.852-80.613-74.77-91.683-57.67-15.998-121.888 25.252-135.193 85.948-3.447 15.778-3.736 33.112-0.719 48.774 7.99 41.62 41.53 70.227 86.485 81.266 23.832 5.855 29.072 11.358 28.698 17.162-0.429 6.651-6.892 17.334-15.063 24.883-26.045 27.87-49.961 52.787-91.252 95.578-27.259 22.618-38.344 73.695-9.807 107.489 7.329 7.868 12.61 13.535 23.867 25.642 42.365 45.563 61.531 65.605 86.426 89.546 12.23 11.757 30.348 20.022 48.2 17.922 26.847-3.158 42.022-26.094 43.747-58.718 3.678-30.673 24.522-54.702 50.597-59.564 22.812-4.255 43.52 2.791 62.489 20.965 21.719 20.801 30.527 45.047 25.878 73.111-4.607 27.81-27.543 49.334-55.431 53.012-20.385 1.924-34.444 5.356-46.831 15.901-23.512 20.018-18.882 49.538 7.364 79.014 15.709 16.575 28.486 29.923 56.649 59.24 23.309 24.263 33.644 35.046 46.312 48.352 11.383 11.943 21.923 19.943 37.82 24.245 24.992 6.762 50.474-2.15 71.851-26.184 33.718-35.489 64.519-67.526 94.253-97.977 6.673-6.843 12.454-11.676 17.751-14.74 6.979-4.029 12.54-1.991 15.567 6.503 0.323 2.675 1.736 13.271 2.743 18.749z" />
<glyph unicode="&#xe95d;" glyph-name="ac-flag" d="M128 832v-768h64v320h256v-64h448v448h-320v64zM192 768h320v-320h-320zM576 704h256v-320h-256z" />
<glyph unicode="&#xe95e;" glyph-name="ac-project, main-Task" d="M137.885 763.435c-6.295 0-11.4-5.105-11.4-11.4v-76.008c0-6.295 5.105-11.4 11.4-11.4h494.052c6.295 0 11.4 5.105 11.4 11.4v76.008c0 6.295-5.105 11.4-11.4 11.4h-494.052zM137.885 816.64h494.052c35.684 0 64.608-28.925 64.608-64.608v-76.008c0-35.684-28.925-64.608-64.608-64.608h-494.052c-35.684 0-64.608 28.925-64.608 64.608v76.008c0 35.684 28.925 64.608 64.608 64.608zM403.912 497.403c-6.295 0-11.4-5.105-11.4-11.4v-76.008c0-6.295 5.105-11.4 11.4-11.4h494.052c6.295 0 11.4 5.105 11.4 11.4v76.008c0 6.295-5.105 11.4-11.4 11.4h-494.052zM403.912 550.612h494.052c35.684 0 64.608-28.925 64.608-64.608v-76.008c0-35.684-28.925-64.608-64.608-64.608h-494.052c-35.684 0-64.608 28.925-64.608 64.608v76.008c0 35.684 28.925 64.608 64.608 64.608zM213.893 231.376c-6.295 0-11.4-5.105-11.4-11.4v-76.008c0-6.295 5.105-11.4 11.4-11.4h494.052c6.295 0 11.4 5.105 11.4 11.4v76.008c0 6.295-5.105 11.4-11.4 11.4h-494.052zM213.893 284.582h494.052c35.684 0 64.608-28.925 64.608-64.608v-76.008c0-35.684-28.925-64.608-64.608-64.608h-494.052c-35.684 0-64.608 28.925-64.608 64.608v76.008c0 35.684 28.925 64.608 64.608 64.608z" />
<glyph unicode="&#xe95f;" glyph-name="ac-lock" d="M512 896c-141 0-256-115-256-256v-64h-32c-52.75 0-96-43.25-96-96v-320c0-52.75 43.25-96 96-96h576c52.75 0 96 43.25 96 96v320c0 52.75-43.25 96-96 96h-32v64c0 141-115 256-256 256zM512 832c106.5 0 192-85.5 192-192v-64h-384v64c0 106.5 85.5 192 192 192zM224 512h576c18 0 32-14 32-32v-320c0-18-14-32-32-32h-576c-18 0-32 14-32 32v320c0 18 14 32 32 32zM512 448c-70.25 0-128-57.75-128-128s57.75-128 128-128c70.25 0 128 57.75 128 128s-57.75 128-128 128zM512 384c1 0 1.75-0.5 2.5-0.5-1.5-5-2.5-10.25-2.5-15.5 0-26.5 21.5-48 48-48 5.25 0 10.5 1 15.5 2.5 0-0.75 0.5-1.5 0.5-2.5 0-35.75-28.25-64-64-64s-64 28.25-64 64c0 35.75 28.25 64 64 64z" />
<glyph unicode="&#xe960;" glyph-name="ac-email_outline, main-MailReceive, control-MailSelectorN, control-MailSelectorH, control-MailSelectorP, control-MailSelectorD" d="M160 832c-52.75 0-96-43.25-96-96v-512c0-52.75 43.25-96 96-96h704c52.75 0 96 43.25 96 96v512c0 52.75-43.25 96-96 96zM160 768h704c2.25 0 4-0.75 6-1.25l-358-247.75-358 247.75c2 0.5 3.75 1.25 6 1.25zM128 707l384-266 384 266v-483c0-18-14-32-32-32h-704c-18 0-32 14-32 32z" />
<glyph unicode="&#xe961;" glyph-name="main-MailSend" d="M64 896l19.2-70.4 108.8-345.6-128-416 896 416-896 416zM166.4 780.8l576-268.8h-492.8l-83.2 268.8zM249.6 448h492.8l-576-268.8 83.2 268.8z" />
<glyph unicode="&#xe962;" glyph-name="ac-key" d="M856.603 425.793c107.192 107.2 107.192 281.012-0.004 388.242-107.226 107.189-281.040 107.189-388.234-0.006-80.921-80.938-102.181-202.141-57.351-304.346l-345.442-345.454v-141.229h240.269v81.059h81.050v99.036l10.095 10.091h99.034v99.051l56.214 56.194c102.21-44.832 223.44-23.569 304.369 57.359zM471.855 499.816l-8.489 16.267c-44.986 86.214-29.477 192.747 40.355 262.593 87.667 87.667 229.828 87.667 317.522 0.003 87.67-87.699 87.67-229.859 0.003-317.532-69.839-69.838-176.395-85.351-262.614-40.364l-16.264 8.487-96.349-96.316v-69.768h-69.739l-39.388-39.375v-69.751h-81.050v-81.059h-140.269v70.519l356.283 356.296zM724.573 615.464c-22.337-22.333-58.496-22.333-80.827 0.011-22.329 22.296-22.329 58.467 0.011 80.799 22.301 22.296 58.465 22.301 80.814 0.001 22.288-22.335 22.283-58.515 0.001-80.812zM759.94 731.618c-41.897 41.834-109.706 41.834-151.53 0.017-41.878-41.861-41.878-109.716-0.009-151.523 41.837-41.863 109.662-41.863 151.533 0 41.804 41.83 41.804 109.65 0.007 151.506z" />
<glyph unicode="&#xe963;" glyph-name="control-Mail" d="M669.262 764.75l-50.891-49.779 225.813-231.375h-798.41v-71.192h798.41l-225.813-231.375 50.891-49.779 308.963 316.75z" />
<glyph unicode="&#xe964;" glyph-name="control-MailReply" d="M270.922 862.437l-241.349-241.078 241.349-241.078 48.757 48.757-157.378 157.649h523.058c133.541 0 242.703-110.517 242.703-244.058s-108.891-241.349-242.703-241.349h-173.359v-69.344h173.359c159.003 0 286.856 121.622 305.004 276.021h7.043v34.672c0 171.463-140.313 313.401-312.047 313.401h-523.058l157.378 157.649z" />
<glyph unicode="&#xe965;" glyph-name="ac-done, control-CompleteHead, control-Complete" d="M136.533 401.067l59.733 59.733 179.2-179.2 452.267 452.267 59.733-59.733-512-512-238.933 238.933z" />
<glyph unicode="&#xe966;" glyph-name="ac-build" d="M672 864c-141 0-256-115-256-256 0-9.5 1.5-18.25 2.5-27-95.25-95.5-257.25-257.5-275.5-276-62.25-62-62.25-164 0-226 62-62.25 164-62.25 226 0l275.75 275.5c9-1 17.75-2.5 27.25-2.5 141 0 256 115 256 256 0 42.5-10.5 82.75-29 118l-20 38.5-169-168.75-50.25 50.25 169 169-38.75 20c-35.25 18.5-75.5 29-118 29zM672 800c14.75 0 27.25-6.75 41-10l-143.75-144 140.75-140.75 22.75 22.75 121.25 121c3.25-13.75 10-26.25 10-41 0-106.5-85.5-192-192-192-11.25 0-22.5 1.25-34 3l-16.25 3-297.75-298c-38-37.75-98-37.75-136 0-37.75 38-37.75 98 0 136 19.25 19 193 192.75 286.25 286l11.75 12-3 16.25c-1.75 11.25-3 22.5-3 33.75 0 106.5 85.5 192 192 192z" />
<glyph unicode="&#xe967;" glyph-name="ac-approval" d="M510.5 894.75c-7.25-0.5-14-3.5-19.5-8.25l-77.25-70-102 22c-16 3.25-32.25-6-37.25-21.5l-32-99.5-99.5-32c-15.5-5-24.75-21-21.5-37l22-102.25-70-77.25c-11-12.25-11-31 0-43l70-77.5-22-102.25c-3.25-16 6-32 21.5-37l99.5-32 32-99.25c5-15.75 21-25 37-21.75l102.25 22 77.25-70c12.25-11 31-11 43 0l77.5 70 102.25-22c16-3.25 32 6 37 21.75l32 99.25 99.25 32c15.75 5 25 21 21.75 37l-22 102.25 70 77.5c11 12 11 30.75 0 43l-70 77.25 22 102.25c3.25 16-6 32-21.75 37l-99.25 32-32 99.5c-5 15.5-21 24.75-37 21.5l-102.25-22-77.5 70c-5.5 5-12.75 8-20.25 8.25-1 0-2.25 0-3.25 0zM512.5 819.5l68.25-61.5c7.75-7 18.25-9.75 28.25-7.5l89.75 19.25 28.25-87.5c3-9.75 10.75-17.5 20.5-20.75l87.5-28-19.25-90c-2.25-10 0.75-20.25 7.5-28l61.75-68-61.75-68.25c-7-7.75-9.75-18.25-7.5-28.25l19.25-89.75-87.5-28.25c-9.75-3-17.5-10.75-20.5-20.5l-28.25-87.5-89.75 19.25c-10 2.25-20.5-0.5-28.25-7.5l-68.25-61.75-68 61.75c-7.75 6.75-18 9.75-28 7.5l-90-19.25-28 87.5c-3.25 9.75-11 17.5-20.75 20.5l-87.25 28.25 19 89.75c2.25 10-0.5 20.5-7.5 28.25l-61.5 68.25 61.5 68c7 7.5 9.75 18 7.5 28l-19 90 87.25 28c9.75 3.25 17.5 11 20.75 20.75l28 87.5 89.75-19.25c10-2.25 20.5 0.5 28.25 7.5zM681.75 599l-202-194.75-113.75 107-44-46.5 158.25-149 246 237.25z" />
<glyph unicode="&#xe968;" glyph-name="ac-language" d="M864 128c51.2 0 96 44.8 96 96v512c0 51.2-44.8 96-96 96h-704c-51.2 0-96-44.8-96-96v-512c0-51.2 44.8-96 96-96h704zM160 192c-19.2 0-32 12.8-32 32v512c0 19.2 12.8 32 32 32h704c19.2 0 32-12.8 32-32v-512c0-19.2-12.8-32-32-32h-704zM224 704c-19.2 0-32-12.8-32-32v-288h64v64h128v-64h64v204.8c0 6.4-6.4 19.2-12.8 25.6l-96 83.2c-6.4 6.4-12.8 6.4-19.2 6.4h-96zM256 640h51.2l76.8-64v-64h-128v128zM640 576v-64h-128v-64h185.6c-6.4-12.8-12.8-25.6-25.6-38.4-6.4-6.4-12.8-12.8-12.8-19.2-25.6 25.6-44.8 44.8-44.8 44.8l-44.8-44.8c0 0 19.2-19.2 38.4-44.8-25.6-12.8-57.6-25.6-96-25.6v-64c57.6 0 108.8 19.2 147.2 51.2 38.4-25.6 83.2-51.2 134.4-51.2v64c-25.6 0-57.6 12.8-89.6 32 6.4 6.4 12.8 12.8 19.2 19.2 19.2 25.6 32 57.6 44.8 76.8h64v64h-128v64h-64z" />
<glyph unicode="&#xe969;" glyph-name="ac-translate" d="M160 832c-52.75 0-96-43.25-96-96v-384c0-52.75 43.25-96 96-96h224v-96c0-52.75 43.25-96 96-96h384c52.75 0 96 43.25 96 96v384c0 52.75-43.25 96-96 96h-224v96c0 52.75-43.25 96-96 96zM160 768h384c18 0 32-14 32-32v-160h288c18 0 32-14 32-32v-384c0-18-14-32-32-32h-384c-18 0-32 14-32 32v160h-288c-18 0-32 14-32 32v384c0 18 14 32 32 32zM320 704v-64h-128v-64h189.5c-7.5-13.5-16.75-28.5-29-44-0.75-1-1.5-1.75-2.25-2.5-13.75 12-23.5 21-23.5 21l-45.5-45c0 0 8.25-8.25 21.75-20-29.25-21.75-65-37.5-111-37.5v-64c68.5 0 121.75 27 162.75 61 42.25-29.5 97-61 157.25-61v64c-33 0-75.25 19.75-110.5 43 0.25 0.25 0.75 0.75 1 1 28.25 35.5 42.25 64.5 50.5 84h59v64h-128v64zM645 512l-133-248v-72h64v56l4.25 8h183.5l4.25-8v-56h64v72l-133 248zM672 427.25l57.5-107.25h-115z" />
<glyph unicode="&#xe96a;" glyph-name="ac-import_contacts" d="M160 832c-52.75 0-96-43.25-96-96v-512c0-52.75 43.25-96 96-96h640c52.75 0 96 43.25 96 96v512c0 52.75-43.25 96-96 96zM160 768h288v-576h-288c-18 0-32 14-32 32v512c0 18 14 32 32 32zM512 768h288c18 0 32-14 32-32v-512c0-18-14-32-32-32h-288zM576 704v-64h192v64zM576 576v-64h192v64zM576 448v-64h192v64zM576 320v-64h192v64z" />
<glyph unicode="&#xe96b;" d="M192 768h640v-704h-640v704z" />
<glyph unicode="&#xe96c;" d="M505.6 832c-6.4 76.8-38.4 128-121.6 128s-115.2-51.2-121.6-128h-134.4v-832h768v832h-390.4zM384 896c44.8 0 57.6-25.6 64-64h-128c6.4 38.4 19.2 64 64 64zM832 64h-640v704h256v-384c0-38.4-25.6-64-64-64s-64 25.6-64 64v192h-64v-192c0-70.4 57.6-128 128-128s128 57.6 128 128v384h320v-704z" />
<glyph unicode="&#xe96d;" glyph-name="main-Collapse" d="M275.949 258.133l-71.841 71.841 307.892 307.892 307.892-307.892-71.841-71.841-236.051 236.051-236.051-236.051z" />
<glyph unicode="&#xe96e;" glyph-name="main-Expand" d="M275.949 765.867l236.051-236.051 236.051 236.051 71.841-71.841-307.892-307.892-307.892 307.892 71.841 71.841z" />
<glyph unicode="&#xe96f;" glyph-name="main-FilesEmpty, ac-attach_file" d="M768 256c0-140.8-115.2-256-256-256s-256 115.2-256 256v448c0 108.8 83.2 192 192 192s192-83.2 192-192v-448c0-70.4-57.6-128-128-128s-128 57.6-128 128v384h64v-384c0-38.4 25.6-64 64-64s64 25.6 64 64v448c0 70.4-57.6 128-128 128s-128-57.6-128-128v-448c0-108.8 83.2-192 192-192s192 83.2 192 192v384h64v-384z" />
<glyph unicode="&#xe970;" glyph-name="ac-receipt, ac-description" d="M224 896c-51.2 0-96-44.8-96-96v-704c0-51.2 44.8-96 96-96h576c51.2 0 96 44.8 96 96v704c0 51.2-44.8 96-96 96h-576zM224 832h576c19.2 0 32-12.8 32-32v-704c0-19.2-12.8-32-32-32h-576c-19.2 0-32 12.8-32 32v704c0 19.2 12.8 32 32 32zM320 704v-64h384v64h-384zM320 512v-64h64v64h-64zM448 512v-64h256v64h-256zM320 384v-64h64v64h-64zM448 384v-64h256v64h-256zM320 256v-64h64v64h-64zM448 256v-64h256v64h-256z" />
<glyph unicode="&#xe971;" glyph-name="ac-pie_chart" d="M480 896c-230.4 0-416-185.6-416-416s185.6-416 416-416 416 185.6 416 416-185.6 416-416 416zM448 832v-364.8l256-256c-64-51.2-140.8-83.2-224-83.2-192 0-352 160-352 352 0 185.6 140.8 332.8 320 352zM512 832c166.4-12.8 300.8-147.2 320-320h-320v320z" />
<glyph unicode="&#xe972;" glyph-name="ac-security" d="M512 896c-98.16 0-237.752-33.286-311.75-52.125-42.393-10.789-72.25-49.342-72.25-93v-206.875c0-158.377 93.945-292.567 184.875-387.25s182.125-151.875 182.125-151.875l17.25-10.75 17 11c0 0 91.032 58.464 181.875 153.75s184.875 229.193 184.875 385.125v206.875c0 43.673-29.842 82.119-72.125 93h-0.125c-73.995 18.839-213.59 52.125-311.75 52.125zM512 832c82.798 0 223.543-31.713 295.875-50.125 14.421-3.711 24.125-16.177 24.125-31v-206.875c0-129.636-81.968-251.678-167.125-341-76.587-80.333-138.387-119.897-153-129.625-14.594 9.499-76.243 47.96-152.75 127.625-85.070 88.581-167.125 210.433-167.125 343v206.875c0 14.966 9.561 27.325 24 31 72.306 18.409 213.168 50.125 296 50.125zM745.375 686.625l-273.375-273.375-145.375 145.375-45.25-45.25 190.625-190.625 318.625 318.625-45.25 45.25z" />
<glyph unicode="&#xe973;" glyph-name="ac-poll" d="M128 402.605c0-176.32 136.982-306.605 313.302-306.605 166.537 0 303.291 125.281 317.954 288h-343.257v336.559c-162.719-14.663-288-151.418-288-317.954zM818.605 448v-45.395c0-208.378-168.924-377.302-377.302-377.302s-377.302 168.924-377.302 377.302c0 208.378 168.924 377.302 377.302 377.302h38.698v-331.907h338.605zM576 547.721h288c-13.802 153.16-134.84 270.477-288 284.279v-284.279zM541.023 896c208.378 0 386.977-168.924 386.977-377.302v-29.023h-416v406.326h29.023z" />
<glyph unicode="&#xe974;" glyph-name="ac-rate-review" d="M960 190.656v640h-896v-640h384v-64h-128v-64h384v64h-128v64h384zM128 766.656h768v-512h-768v512zM256 638.656h512v-64h-512v64zM256 446.656h320v-64h-320v64z" />
<glyph unicode="&#xe975;" glyph-name="ac-local_hotel" d="M64 704v-576h64v128h768v-128h64v352c0 51.2-44.8 96-96 96h-320c-19.2 0-32-12.8-32-32v-224h-384v384h-64zM320 320c70.4 0 128 57.6 128 128s-57.6 128-128 128-128-57.6-128-128 57.6-128 128-128zM320 512c38.4 0 64-25.6 64-64s-25.6-64-64-64-64 25.6-64 64 25.6 64 64 64zM576 512h288c19.2 0 32-12.8 32-32v-160h-320v192z" />
<glyph unicode="&#xe976;" glyph-name="ac-details" d="M768 505.6c51.2 0 96-44.8 96-96s-44.8-89.6-96-89.6-96 44.8-96 96 44.8 89.6 96 89.6zM768 256c64 0 192-32 192-96v-32h-384v32c0 57.6 128 96 192 96zM64 768h896v-64h-896v64zM64 256v-64h435.2c0 0 0 25.6 6.4 32 6.4 12.8 38.4 32 57.6 38.4l-499.2-6.4zM627.2 512h-563.2v-64h531.2c0 0 0 19.2 12.8 38.4 6.4 19.2 19.2 25.6 19.2 25.6z" />
<glyph unicode="&#xe977;" glyph-name="ac-directions_car, ac-drive_eta" d="M319.75 768c-23.25 0-45.5-9.25-60.75-24-15-14.75-24.25-32.5-32.25-52l0.75 2-91.5-190.25c-7.25-3.75-16.75-9.25-26.75-16.75-19.25-13.75-45.25-34-45.25-71v-288c0-35.25 28.75-64 64-64h64v64h640v-64h64c35.25 0 64 28.75 64 64v288c0 37-26 57.25-45.25 71-10 7.5-19.5 12.75-26.75 16.5l-91.5 190.5c-7.75 15.75-16.5 32.5-30.75 47.25-14.5 14.75-36.5 26.75-61.5 26.75zM319.75 704h384.5c7.25 0 9.75-1.25 15.5-7.25s12.5-17.25 19.25-30.75l74-154h-602l74.5 155 0.5 0.5c6.25 15.5 12.5 25.75 17.5 30.5s7.25 6 16.25 6zM168.5 448h687.25c3.5-1.75 11-5 21.5-12.5 12.75-9.5 18.75-21.25 18.75-19.5v-224h-768v224c0-1.75 6 10 18.75 19.5 10.5 7.5 18 10.75 21.75 12.5zM224 384c-17.75 0-32-14.25-32-32s14.25-32 32-32c17.75 0 32 14.25 32 32s-14.25 32-32 32zM800 384c-17.75 0-32-14.25-32-32s14.25-32 32-32c17.75 0 32 14.25 32 32s-14.25 32-32 32zM320 320v-64h384v64z" />
<glyph unicode="&#xe978;" glyph-name="ac-local_bar" d="M544 320c140.8 19.2 288 172.8 288 352 0 64-6.4 134.4-19.2 198.4v25.6h-601.6v-25.6c-12.8-70.4-19.2-134.4-19.2-198.4 0-179.2 147.2-332.8 288-352v-256h-224v-64h512v64h-224v256zM256 672c0 51.2 6.4 108.8 12.8 160h486.4c6.4-19.2 6.4-44.8 6.4-64h-441.6v-64h448c0-12.8 0-19.2 0-32 0-160-134.4-288-256-288s-256 128-256 288z" />
<glyph unicode="&#xe979;" glyph-name="ac-flight, ac-local_airport" d="M480 896c-52.75 0-96-43.25-96-96v-174l-320-192v-121l320 64v-137l-64-48v-126.75l160 90 160-90v126.75l-64 48v137l320-64v121l-320 192v174c0 52.75-43.25 96-96 96zM480 832c18 0 32-14 32-32v-210l320-192v-7l-320 64v-244.25l-32 18-32-18v244.25l-320-64v7l320 192v210c0 18 14 32 32 32z" />
<glyph unicode="&#xe97a;" glyph-name="ac-inquiries" d="M475.861 808.259c-127.556-15.466-230.919-110.977-256.599-237.104s32.086-254.566 143.405-318.849v-40.358c0-55.085 44.573-99.74 99.556-99.74h99.556c54.983 0 99.556 44.655 99.556 99.74v40.358c117.066 67.662 174.148 205.684 139.154 336.467s-153.334 221.693-288.484 221.616c-12.079-0.004-24.147-0.715-36.142-2.13zM629.010 304.672l-23.449-13.606v-65.265c-0.030-26-21.060-47.070-47.012-47.1h-94.025c-25.952 0.030-46.983 21.1-47.012 47.1v65.265l-23.446 13.606c-87.614 50.541-133.119 151.578-112.97 250.834s101.431 174.459 201.789 186.7c9.511 1.12 19.078 1.684 28.654 1.69 106.377 0.072 199.523-71.485 227.055-174.428s-17.424-211.572-109.585-264.797zM636.444 29.091c0-24.935-18.619-33.251-39.439-33.247h-35.227c0-27.543-22.286-54.026-49.778-54.026s-49.778 26.483-49.778 54.026h-40.109c-24.985 0-34.557 16.623-34.557 33.247s9.573 33.247 34.557 33.247h174.892c20.821 0.004 39.439-8.312 39.439-33.247zM163.556 507.013c0.004-7.717-2.617-15.119-7.286-20.575s-11.001-8.52-17.603-8.516h-49.778c-13.746 0-24.889 13.024-24.889 29.091s11.143 29.091 24.889 29.091h49.778c6.602 0.004 12.935-3.059 17.603-8.516s7.289-12.859 7.286-20.575zM960 507.013c0.004-7.717-2.617-15.119-7.286-20.575s-11.001-8.52-17.603-8.516h-49.778c-13.746 0-24.889 13.024-24.889 29.091s11.143 29.091 24.889 29.091h49.778c6.602 0.004 12.935-3.059 17.603-8.516s7.289-12.859 7.286-20.575zM487.111 885.195v49.87c0 13.771 13.050 24.935 29.149 24.935s29.149-11.164 29.149-24.935v-49.87c0-13.771-13.050-24.935-29.149-24.935s-29.149 11.164-29.149 24.935zM229.396 753.715l-35.264 35.264c-9.738 9.738-8.404 26.86 2.98 38.243s28.505 12.717 38.243 2.98l35.264-35.264c9.738-9.738 8.404-26.86-2.98-38.243s-28.505-12.717-38.243-2.98zM795.427 753.715l35.264 35.264c9.738 9.738 8.404 26.86-2.98 38.243s-28.505 12.717-38.243 2.98l-35.264-35.264c-9.738-9.738-8.404-26.86 2.98-38.243s28.505-12.717 38.243-2.98z" />
<glyph unicode="&#xe97b;" glyph-name="main-RecordEdit, main-DataEntry, main-DataEntryF, ac-border_color, control-EditN, control-EditH, control-EditP, control-EditD" d="M631.267 664.529l-503.267-492.693v-107.836h108.386l492.299 503.488c24.711 25.273 24.256 65.793-1.017 90.504-0.192 0.188-0.386 0.375-0.581 0.561l-6.886 6.565c-24.961 23.798-64.291 23.538-88.935-0.588zM263.277 0h-199.277v198.706l616.462 603.549c40.65 39.878 105.824 39.628 146.166-0.561l38.792-38.644c40.427-40.273 40.82-105.604 0.881-146.361l-603.025-616.688z" />
<glyph unicode="&#xe97c;" glyph-name="ac-pen_frame, control-DataEntry" d="M267.636 838.982c-80.975 0-146.618-65.643-146.618-146.618v-488.727c0-80.975 65.643-146.618 146.618-146.618h488.727c80.975 0 146.618 65.643 146.618 146.618v488.727c0 80.975-65.643 146.618-146.618 146.618h-488.727zM267.636 896h488.727c112.465 0 203.636-91.171 203.636-203.636v-488.727c0-112.465-91.171-203.636-203.636-203.636h-488.727c-112.465 0-203.636 91.171-203.636 203.636v488.727c0 112.465 91.171 203.636 203.636 203.636zM699.327 587.886l-323.593-331.886h-55.734v55.402l331.777 323.919c6.396 6.274 16.65 6.235 22.998-0.088l24.414-24.319c6.361-6.336 6.423-16.614 0.139-23.027zM384.106 192l428.802 437.585c25.675 26.201 25.422 68.199-0.567 94.089l-24.937 24.843c-25.934 25.836-67.832 25.997-93.964 0.361l-437.44-429.139v-127.739h128.106z" />
<glyph unicode="&#xe97d;" glyph-name="ac-check_box_outline_blank" d="M160 896c-51.2 0-96-44.8-96-96v-704c0-51.2 44.8-96 96-96h704c51.2 0 96 44.8 96 96v704c0 51.2-44.8 96-96 96h-704zM160 832h704c19.2 0 32-12.8 32-32v-704c0-19.2-12.8-32-32-32h-704c-19.2 0-32 12.8-32 32v704c0 19.2 12.8 32 32 32z" />
<glyph unicode="&#xe97e;" glyph-name="ac-plus_square_filled" d="M864 896h-704c-51.2 0-96-44.8-96-96v-704c0-51.2 44.8-96 96-96h704c51.2 0 96 44.8 96 96v704c0 51.2-44.8 96-96 96zM736 416h-192v-192h-64v192h-192v64h192v192h64v-192h192v-64z" />
<glyph unicode="&#xe97f;" glyph-name="ac-plus_square" d="M160 896c-51.2 0-96-44.8-96-96v-704c0-51.2 44.8-96 96-96h704c51.2 0 96 44.8 96 96v704c0 51.2-44.8 96-96 96h-704zM160 832h704c19.2 0 32-12.8 32-32v-704c0-19.2-12.8-32-32-32h-704c-19.2 0-32 12.8-32 32v704c0 19.2 12.8 32 32 32zM480 672v-192h-192v-64h192v-192h64v192h192v64h-192v192h-64z" />
<glyph unicode="&#xe980;" glyph-name="ac-account_details" d="M64 768h896v-64h-896v64zM64 448v64h512v-64h-512zM64 192v64h512v-64h-512zM768 608v-32c-25.6-6.4-44.8-12.8-64-32s-32-51.2-32-76.8 12.8-64 32-83.2 51.2-32 76.8-32h51.2c19.2 0 25.6-6.4 38.4-12.8s12.8-19.2 12.8-38.4-6.4-25.6-12.8-32-19.2-12.8-38.4-12.8h-64c-19.2 0-32 19.2-32 38.4v6.4h-64v-6.4c0-51.2 38.4-102.4 96-102.4v-32h64v32c32 0 57.6 12.8 83.2 32s32 51.2 32 83.2-12.8 57.6-32 76.8-51.2 32-83.2 32h-51.2c-12.8 0-25.6 6.4-32 12.8s-12.8 19.2-12.8 38.4 6.4 25.6 12.8 38.4 19.2 6.4 32 6.4h38.4c19.2 0 38.4-19.2 38.4-38.4v-6.4h64v6.4c0 51.2-44.8 96-96 102.4v32h-57.6z" />
<glyph unicode="&#xe981;" glyph-name="ac-minus_square_filled" d="M864 896h-704c-51.2 0-96-44.8-96-96v-704c0-51.2 44.8-96 96-96h704c51.2 0 96 44.8 96 96v704c0 51.2-44.8 96-96 96zM736 416h-448v64h448v-64z" />
<glyph unicode="&#xe982;" glyph-name="ac-minus_square" d="M160 896c-51.2 0-96-44.8-96-96v-704c0-51.2 44.8-96 96-96h704c51.2 0 96 44.8 96 96v704c0 51.2-44.8 96-96 96h-704zM160 832h704c19.2 0 32-12.8 32-32v-704c0-19.2-12.8-32-32-32h-704c-19.2 0-32 12.8-32 32v704c0 19.2 12.8 32 32 32zM288 480v-64h448v64h-448z" />
<glyph unicode="&#xe983;" glyph-name="ac-check_box_filled" d="M864 896h-704c-51.2 0-96-44.8-96-96v-704c0-51.2 44.8-96 96-96h704c51.2 0 96 44.8 96 96v704c0 51.2-44.8 96-96 96zM448 275.2l-192 192 44.8 44.8 147.2-147.2 275.2 275.2 44.8-44.8-320-320z" />
<glyph unicode="&#xe984;" glyph-name="ac-check_box" d="M160 896c-51.2 0-96-44.8-96-96v-704c0-51.2 44.8-96 96-96h704c51.2 0 96 44.8 96 96v704c0 51.2-44.8 96-96 96h-704zM160 832h704c19.2 0 32-12.8 32-32v-704c0-19.2-12.8-32-32-32h-704c-19.2 0-32 12.8-32 32v704c0 19.2 12.8 32 32 32zM723.2 640l-275.2-275.2-147.2 147.2-44.8-44.8 192-192 320 320-44.8 44.8z" />
<glyph unicode="&#xe985;" glyph-name="ac-check_circle_filled" d="M512 896c-249.6 0-448-198.4-448-448s198.4-448 448-448 448 198.4 448 448-198.4 448-448 448zM448 275.2l-153.6 147.2 44.8 44.8 108.8-102.4 230.4 230.4 44.8-44.8-275.2-275.2z" />
<glyph unicode="&#xe986;" glyph-name="ac-check_circle" d="M512 896c-249.6 0-448-198.4-448-448s198.4-448 448-448 448 198.4 448 448-198.4 448-448 448zM512 832c211.2 0 384-172.8 384-384s-172.8-384-384-384-384 172.8-384 384 172.8 384 384 384zM678.4 601.6l-230.4-236.8-102.4 108.8-51.2-51.2 153.6-147.2 281.6 281.6-51.2 44.8z" />
<glyph unicode="&#xe987;" glyph-name="main-FilterSet, main-RecordDel, control-Close, control-CloseB" d="M889.6 755.2l-70.4 70.4-307.2-307.2-307.2 300.8-64-64 300.8-307.2-307.2-307.2 70.4-70.4 307.2 307.2 307.2-307.2 70.4 70.4-307.2 307.2 307.2 307.2z" />
<glyph unicode="&#xe988;" glyph-name="ac-check_circle_circle" d="M512 896c-249.6 0-448-198.4-448-448s198.4-448 448-448 448 198.4 448 448-198.4 448-448 448zM512 832c211.2 0 384-172.8 384-384s-172.8-384-384-384-384 172.8-384 384 172.8 384 384 384z" />
<glyph unicode="&#xe989;" glyph-name="ac-minus_circle_filled" d="M512 896c-249.6 0-448-198.4-448-448s198.4-448 448-448 448 198.4 448 448-198.4 448-448 448zM736 416h-448v64h448v-64z" />
<glyph unicode="&#xe98a;" glyph-name="ac-remove_circle, ac-remove_circle_outline" d="M512 896c-249.6 0-448-198.4-448-448s198.4-448 448-448 448 198.4 448 448-198.4 448-448 448zM512 832c211.2 0 384-172.8 384-384s-172.8-384-384-384-384 172.8-384 384 172.8 384 384 384zM288 480v-64h448v64h-448z" />
<glyph unicode="&#xe98b;" glyph-name="ac-plus_circle_filled" d="M512 896c-248.123 0-448-199.877-448-448s199.877-448 448-448 448 199.877 448 448-199.877 448-448 448zM684.308 413.538h-137.846v-137.846h-68.923v137.846h-137.846v68.923h137.846v137.846h68.923v-137.846h137.846v-68.923z" />
<glyph unicode="&#xe98c;" glyph-name="ac-control_point, ac-add_circle" d="M512 896c-246.884 0-448-201.116-448-448s201.116-448 448-448c246.884 0 448 201.116 448 448s-201.116 448-448 448zM512 827.076c209.73 0 379.077-169.346 379.077-379.077s-169.346-379.077-379.077-379.077c-209.73 0-379.077 169.346-379.077 379.077s169.346 379.077 379.077 379.077zM477.539 620.307v-137.846h-137.846v-68.923h137.846v-137.846h68.923v137.846h137.846v68.923h-137.846v137.846z" />
<glyph unicode="&#xe98d;" glyph-name="ac-local_shipping" d="M1004.8 448l-102.4 147.2c-12.8 32-44.8 44.8-76.8 44.8h-185.6v96c0 51.2-44.8 96-96 96h-448c-51.2 0-96-44.8-96-96v-448c0-51.2 44.8-96 96-96h38.4c12.8-57.6 64-96 121.6-96s108.8 38.4 121.6 96h262.4c12.8-57.6 64-96 121.6-96s108.8 38.4 121.6 96h38.4c51.2 0 96 44.8 96 96v108.8c6.4 19.2 0 38.4-12.8 51.2zM256 160c-38.4 0-64 25.6-64 64s25.6 64 64 64 64-25.6 64-64-25.6-64-64-64zM576 256h-198.4c-12.8 57.6-64 96-121.6 96s-108.8-38.4-121.6-96h-38.4c-19.2 0-32 12.8-32 32v448c0 19.2 12.8 32 32 32h448c19.2 0 32-12.8 32-32v-480zM768 160c-38.4 0-64 25.6-64 64s25.6 64 64 64 64-25.6 64-64-25.6-64-64-64zM960 288c0-19.2-12.8-32-32-32h-38.4c-12.8 57.6-64 96-121.6 96s-108.8-38.4-121.6-96h-6.4v320h185.6c12.8 0 19.2-6.4 25.6-12.8v0l102.4-147.2c6.4-6.4 6.4-12.8 6.4-19.2v-108.8z" />
<glyph unicode="&#xe98e;" glyph-name="ac-arrow_drop_down_circle_filled" d="M512 896c-249.6 0-448-198.4-448-448s198.4-448 448-448 448 198.4 448 448-198.4 448-448 448zM512 281.6l-224 217.6 44.8 44.8 179.2-172.8 179.2 172.8 44.8-44.8-224-217.6z" />
<glyph unicode="&#xe98f;" glyph-name="ac-arrow_drop_down_circle" d="M512 896c-249.6 0-448-198.4-448-448s198.4-448 448-448 448 198.4 448 448-198.4 448-448 448zM512 832c211.2 0 384-172.8 384-384s-172.8-384-384-384-384 172.8-384 384 172.8 384 384 384zM332.8 544l-44.8-44.8 224-217.6 224 211.2-44.8 44.8-179.2-166.4-179.2 172.8z" />
<glyph unicode="&#xe990;" glyph-name="ac-help_filled, main-outlookHelp" d="M512 896c-249.6 0-448-198.4-448-448s198.4-448 448-448 448 198.4 448 448-198.4 448-448 448zM544 224h-64v64h64v-64zM582.4 390.4c-19.2-6.4-25.6-12.8-32-19.2-6.4 0-6.4-6.4-6.4-19.2h-64c0 25.6 12.8 51.2 25.6 64 12.8 19.2 32 25.6 51.2 32 32 12.8 51.2 32 51.2 70.4 0 44.8-32 83.2-64 89.6-57.6 6.4-102.4-32-102.4-83.2h-64c0 76.8 57.6 140.8 140.8 147.2 6.4 0 19.2 0 32 0 70.4-12.8 121.6-83.2 121.6-153.6 0-64-44.8-108.8-89.6-128z" />
<glyph unicode="&#xe991;" glyph-name="ac-more_horiz" d="M682.667 448c0 46.933 38.4 85.333 85.333 85.333s85.333-38.4 85.333-85.333-38.4-85.333-85.333-85.333-85.333 38.4-85.333 85.333zM426.667 448c0 46.933 38.4 85.333 85.333 85.333s85.333-38.4 85.333-85.333-38.4-85.333-85.333-85.333-85.333 38.4-85.333 85.333zM170.667 448c0 46.933 38.4 85.333 85.333 85.333s85.333-38.4 85.333-85.333-38.4-85.333-85.333-85.333-85.333 38.4-85.333 85.333z" />
<glyph unicode="&#xe992;" glyph-name="ac-more_vert" d="M512 277.333c46.933 0 85.333-38.4 85.333-85.333s-38.4-85.333-85.333-85.333-85.333 38.4-85.333 85.333 38.4 85.333 85.333 85.333zM512 533.333c46.933 0 85.333-38.4 85.333-85.333s-38.4-85.333-85.333-85.333-85.333 38.4-85.333 85.333 38.4 85.333 85.333 85.333zM512 789.333c46.933 0 85.333-38.4 85.333-85.333s-38.4-85.333-85.333-85.333-85.333 38.4-85.333 85.333 38.4 85.333 85.333 85.333z" />
<glyph unicode="&#xe993;" glyph-name="ac-help" d="M512 896c-249.6 0-448-198.4-448-448s198.4-448 448-448 448 198.4 448 448-198.4 448-448 448zM512 832c211.2 0 384-172.8 384-384s-172.8-384-384-384-384 172.8-384 384 172.8 384 384 384zM518.4 672c-83.2-6.4-140.8-70.4-140.8-147.2h64c0 51.2 44.8 89.6 102.4 83.2 32-6.4 64-44.8 64-89.6 0-38.4-19.2-57.6-51.2-70.4-19.2-6.4-38.4-12.8-51.2-32-12.8-12.8-25.6-38.4-25.6-64h64c0 12.8 0 19.2 6.4 19.2 6.4 6.4 12.8 12.8 32 19.2 44.8 19.2 89.6 64 89.6 128 0 70.4-51.2 140.8-121.6 153.6-12.8 0-25.6 0-32 0zM480 288v-64h64v64h-64z" />
<glyph unicode="&#xe994;" glyph-name="ac-cross_filled" d="M512 896c-249.6 0-448-198.4-448-448s198.4-448 448-448 448 198.4 448 448-198.4 448-448 448zM659.2 345.6l-44.8-44.8-102.4 102.4-102.4-108.8-51.2 51.2 108.8 102.4-108.8 102.4 51.2 51.2 102.4-108.8 102.4 108.8 44.8-51.2-102.4-102.4 102.4-102.4z" />
<glyph unicode="&#xe995;" glyph-name="delete1" d="M512 896c-249.6 0-448-198.4-448-448s198.4-448 448-448 448 198.4 448 448-198.4 448-448 448zM512 832c211.2 0 384-172.8 384-384s-172.8-384-384-384-384 172.8-384 384 172.8 384 384 384zM409.6 294.4l102.4 108.8 102.4-102.4 44.8 44.8-102.4 102.4 102.4 102.4-44.8 51.2-102.4-108.8-102.4 108.8-51.2-51.2 108.8-102.4-108.8-102.4 51.2-51.2z" />
<glyph unicode="&#xe996;" glyph-name="ac-row_security" d="M64 768h896v-64h-896v64zM64 448v64h448v-64h-448zM64 192v64h512v-64h-512zM783.999 576h0.001c44.99 0 108.97-15.354 142.885-24.044h0.058c19.38-5.019 33.058-22.752 33.058-42.897v-95.424c0-71.926-43.098-133.692-84.734-177.643s-83.359-70.919-83.359-70.919l-7.792-5.074-7.906 4.959c0 0-41.797 26.381-83.474 70.054s-84.734 105.57-84.734 178.623v95.424c0 20.138 13.684 37.92 33.114 42.897 33.916 8.69 97.895 24.044 142.885 24.044zM783.112 517.408c-32.42 0-87.552-12.493-115.851-19.744-5.651-1.448-9.393-6.316-9.393-12.211v-81.487c0-52.217 32.116-100.213 65.411-135.105 29.944-31.38 54.073-46.529 59.785-50.271 5.72 3.832 29.908 19.416 59.883 51.059 33.33 35.183 65.411 83.254 65.411 134.317v81.487c0 5.839-3.798 10.749-9.443 12.211-28.31 7.253-83.397 19.744-115.803 19.744z" />
<glyph unicode="&#xe997;" glyph-name="main-Fail, control-Error" d="M512 832c213.942 0 384-170.058 384-384s-170.058-384-384-384-384 170.058-384 384 170.058 384 384 384zM649.142 640l-137.142-137.142-137.142 137.142-54.858-54.858 137.142-137.142-137.142-137.142 54.858-54.858 137.142 137.142 137.142-137.142 54.858 54.858-137.142 137.142 137.142 137.142-54.858 54.858z" />
<glyph unicode="&#xe998;" d="M512 832c213.942 0 384-170.058 384-384s-170.058-384-384-384-384 170.058-384 384 170.058 384 384 384z" />
<glyph unicode="&#xe999;" d="M435.2 277.942l-153.6 153.6 54.858 54.858 98.742-98.742 252.342 252.342 54.858-54.858-307.2-307.2z" />
<glyph unicode="&#xe99a;" d="M512 832c213.942 0 384-170.058 384-384s-170.058-384-384-384-384 170.058-384 384 170.058 384 384 384z" />
<glyph unicode="&#xe99b;" d="M566.858 338.286v-109.714h-109.714v109.714h109.714zM566.858 667.428v-274.286h-109.714v274.286h109.714z" />
<glyph unicode="&#xe99c;" glyph-name="ac-people" d="M837.013 683.125v151.729c-0.013 10.338-5.527 19.889-14.473 25.068s-19.973 5.208-28.946 0.073c-2.514-1.45-257.233-146.411-429.946-146.411h-88.001c-84.982 0.123-158.361-59.459-175.691-142.654s26.165-167.121 104.128-200.933l100.767-294.271c6.469-24.406 28.33-41.571 53.575-42.066 2.588 0.007 5.175 0.201 7.737 0.579 38.64 2.791 76.139 14.331 109.663 33.749 7.142 3.301 13.68 7.781 19.341 13.25 1.132 1.136 2.166 2.367 3.094 3.676 17.816 24.47 18.050 57.575 0.579 82.296-10.346 16.634-36.845 80.457-41.582 177.355 161.69-33.363 333.919-134.516 335.757-135.773 8.967-5.316 20.096-5.414 29.153-0.253s14.651 14.781 14.653 25.204v190.798c53.774 13.471 91.512 61.769 91.579 117.205v24.175c-0.045 55.381-37.688 103.66-91.386 117.205zM154.763 534.297c0.053 66.764 54.019 120.949 120.783 121.266h58.989v-242.533h-58.989c-66.763 0.318-120.731 54.503-120.783 121.266zM452.033 120.985l-3.676-1.934-3.191-1.836c-7.060-4.641-33.749-20.307-84.617-25.239v1.934l-89.742 261.392h93.127c11.315 0 23.017-0.579 34.813-1.643 3.483-113.241 34.523-191.377 51.447-217.873l0.871-1.257c2.916-3.945 3.293-9.218 0.966-13.538zM778.99 686.799v-403.836c-77.364 40.809-241.76 119.237-386.816 129.004v244.759c139.737 10.153 308.195 89.16 386.816 129.583v-99.51zM870.859 541.743c-0.022-23.422-13.068-44.89-33.847-55.702v135.387c20.53-10.909 33.363-32.259 33.363-55.509l0.484-24.175z" />
<glyph unicode="&#xe99d;" glyph-name="ac-person_add" d="M866.018 216.977v-69.091h-552.728v69.091c0 41.455 31.091 72.546 93.273 100.182 62.182 24.182 124.364 38 183.091 38s117.455-13.819 183.091-38c62.182-24.182 93.273-58.727 93.273-100.182zM209.653 596.977h69.091v-103.636h103.636v-69.091h-103.636v-103.636h-69.091v103.636h-103.636v69.091h103.636v103.636zM686.381 465.705c-51.818-51.818-141.636-51.818-193.454 0s-51.818 141.636 0 193.454c55.273 55.273 138.182 55.273 193.454 0 51.818-55.273 55.273-141.636 0-193.454z" />
<glyph unicode="&#xe99e;" glyph-name="ac-person_outline" d="M512 448c-106.039 0-192 85.961-192 192s85.961 192 192 192c106.039 0 192-85.961 192-192s-85.961-192-192-192zM512 531.2c60.089 0 108.8 48.711 108.8 108.8s-48.711 108.8-108.8 108.8c-60.089 0-108.8-48.711-108.8-108.8s48.711-108.8 108.8-108.8zM512 352c292.8 0 384-192 384-192v-96h-768v96c0 0 91.2 192 384 192zM805.879 147.2c-10.092 12.795-24.734 28.219-44.372 44.088-59.614 48.173-140.664 77.512-249.507 77.512s-189.893-29.339-249.507-77.512c-19.638-15.869-34.279-31.292-44.372-44.088h587.758z" />
<glyph unicode="&#xe99f;" glyph-name="ac-person" d="M831.999 208v-79.999h-640v79.999c0 48 36 84 108 115.999 72 28 144 43.999 211.999 43.999s136-16 211.999-43.999c72-28 108-67.999 108-115.999zM624 496c-60-60-163.999-60-223.999 0s-60 163.999 0 223.999c64 64 160 64 223.999 0 60-64 64-163.999 0-223.999z" />
<glyph unicode="&#xe9a0;" glyph-name="control-HideFrame, control-PrevMonth, control-PrevYear" d="M713.144 850.284l-402.284-352 402.284-352v704z" />
<glyph unicode="&#xe9a1;" glyph-name="control-ShowFrame, control-NextMonth, control-NextYear" d="M310.856 850.284l402.284-352-402.284-352v704z" />
<glyph unicode="&#xe9a2;" glyph-name="control-Reminder" d="M768 533.332c0 119.468-128 256-256 256s-256-136.532-256-256v-341.332h512v341.332zM853.332 192h85.332v-85.332h-853.332v85.332h85.332v341.332c0 145.068 110.932 290.132 256 324.268v34.132c0 34.132 42.668 68.268 85.332 68.268s85.332-34.132 85.332-68.268v-34.132c136.532-34.132 256-179.2 256-324.268v-341.332zM512-64c-51.2 0-85.332 34.132-85.332 85.332h170.668c-8.532-51.2-34.132-85.332-85.332-85.332z" />
<glyph unicode="&#xe9a3;" glyph-name="control-ReminderHead" d="M768 533.332c0 119.468-128 256-256 256s-256-136.532-256-256v-341.332h512v341.332zM853.332 192h85.332v-85.332h-853.332v85.332h85.332v341.332c0 145.068 110.932 290.132 256 324.268v34.132c0 34.132 42.668 68.268 85.332 68.268s85.332-34.132 85.332-68.268v-34.132c136.532-34.132 256-179.2 256-324.268v-341.332zM512-64c-51.2 0-85.332 34.132-85.332 85.332h170.668c-8.532-51.2-34.132-85.332-85.332-85.332zM938.668 618.668c-8.532 128-76.8 196.268-170.668 256l51.2 68.268c119.468-85.332 196.268-179.2 204.8-324.268h-85.332zM256 874.668c-102.4-59.732-162.132-128-170.668-256h-85.332c8.532 153.6 85.332 238.932 204.8 324.268 0 0 51.2-68.268 51.2-68.268z" />
<glyph unicode="&#xe9a4;" glyph-name="control-SubMenu" d="M704 448l-384-384v768l384-384z" />
<glyph unicode="&#xe9a5;" glyph-name="ac-helmet" d="M689.69 307.2c44.943-7.132 93.237-22.152 127.841-51.2 41.592-34.944 46.469-71.654 46.469-124.338v-67.662h-315.86l141.55 243.2zM334.875 307.2l141.55-243.2h-316.425v67.644c0 52.685 5.442 89.412 47.017 124.356 34.603 29.066 82.916 44.050 127.859 51.2zM645.159 625.804h-265.591l-32.197 12.956h-15.214v24.264l15.375 28.744c6.254 33.152 16.809 63.885 39.424 89.635 13.798 15.716 13.798 15.716 29.045 24.997v-102.4h64l-0.090 128h64l0.090-128h64v102.4c21.755-9.3 15.788-9.282 29.604-24.997 22.705-25.858 33.080-56.394 39.424-89.635l15.375-28.744v-24.264h-15.178l-32.066-12.956zM555.039 403.518c-26.754-5.053-54.62-5.394-83.704-0.663l-23.654 9.211c-19.103 11.182-27.317 16.851-45.792 44.161-9.48 13.995-20.303 30.016-34.998 49.746-2.115 2.831-3.889 6.397-5.43 10.483-6.129 16.916-8.076 28.436-9.080 50.692l23.977-7.025h267.46l23.959 7.025c-0.806-22.292-2.228-33.758-8.518-50.692-1.523-4.086-3.315-7.652-5.43-10.483-14.676-19.712-25.536-35.75-34.998-49.746-18.475-27.328-23.724-33.015-42.845-44.179l-20.948-8.53zM543.877 288c0 22.361 0 38.44 0 48.235 67.484 6.157 86.739 34.636 125.169 91.464 9.731 14.408 20.895 30.912 33.6 47.954 8.315 11.164 13.691 25.428 17.239 40.804 5.43 23.618 6.684 49.853 7.204 71.232h28.116l0.394 87.7-17.866 33.349c-8.494 41.951-24.676 77.665-49.71 106.158-25.393 28.905-59.351 49.925-102.878 61.967-21.361 12.723-8.261 19.121-72.683 19.121-43.886 0-40.857 1.434-73.006-19.156-43.492-12.042-77.396-33.044-102.753-61.931-25.034-28.493-41.216-64.207-49.71-106.158l-17.848-33.349 0.394-87.7h28.098c0.681-21.504 1.774-47.667 7.204-71.232 3.53-15.375 8.924-29.64 17.239-40.804 12.651-17.024 23.816-33.51 33.582-47.954 38.3-56.605 57.558-85.071 124.357-91.386 0-6.97 0-23.074 0-48.313h63.857zM661.358 373.294l-117.358-213.294v64h-64v-64l-116.793 213.294-17.4-2.204c-68.221-9.014-127.912-27.417-171.44-63.956-45.104-37.901-78.366-93.524-78.366-175.472v-131.658h832v131.64c0 81.948-32.679 137.571-77.765 175.472-43.528 36.557-103.219 54.943-171.44 63.956l-17.436 2.222z" />
<glyph unicode="&#xe9a6;" glyph-name="main-Search2, control-SelectorN, control-SelectorH, control-SelectorP, control-SelectorD" d="M128 135.314l71.314-71.314 213.942 213.942v38.4l10.972 10.972c49.372-43.886 115.2-71.314 186.514-71.314 159.086 0 285.258 126.172 285.258 285.258s-131.658 290.742-285.258 290.742-285.258-126.172-285.258-279.772c0-71.314 27.428-131.658 71.314-186.514l-10.972-16.458h-38.4c0 0-213.942-213.942-219.428-213.942zM413.258 546.742c0 109.714 87.772 192 192 192s192-87.772 192-192-87.772-192-192-192-192 82.286-192 192z" />
<glyph unicode="&#xe9a7;" glyph-name="control-Filter" d="M860.444 782.222c14.222 14.222 7.111 21.333-7.111 21.333h-682.667c-14.222 0-21.333-7.111-7.111-21.333l277.333-263.111v-355.556h142.222v355.556l277.333 263.111z" />
<glyph unicode="&#xe9a8;" glyph-name="control-FilterSortAsc" d="M718.222 782.222c14.222 14.222 7.111 21.333-7.111 21.333h-682.667c-14.222 0-21.333-7.111-7.111-21.333l277.333-263.111v-355.556h142.222v355.556l277.333 263.111zM654.222 554.667h142.222v-391.111h71.111v391.111h142.222l-177.778 177.778-177.778-177.778z" />
<glyph unicode="&#xe9a9;" glyph-name="control-FilterSortDesc" d="M718.222 782.222c14.222 14.222 7.111 21.333-7.111 21.333h-682.667c-14.222 0-21.333-7.111-7.111-21.333l277.333-263.111v-355.556h142.222v355.556l277.333 263.111zM832 163.556l177.778 177.778h-142.222v391.111h-71.111v-391.111h-142.222l177.778-177.778z" />
<glyph unicode="&#xe9aa;" glyph-name="ac-handshake" d="M576 755.2c-19.2 0-38.4-6.4-57.6-12.8l-57.6-32-12.8-6.4h-384v-409.6h57.6l243.2-224c19.2-19.2 51.2-32 76.8-32 32 0 57.6 12.8 83.2 32v0l115.2 121.6h320v512l-153.6-51.2-172.8 89.6c-19.2 6.4-38.4 12.8-57.6 12.8zM569.6 691.2c6.4 0 12.8 0 25.6-6.4l211.2-102.4 89.6 25.6v-352h-185.6l6.4 6.4c96 96 115.2 134.4 51.2 192l-204.8 147.2-115.2-57.6c-25.6-12.8-64 6.4-76.8 25.6l-6.4 19.2 185.6 96c6.4 6.4 12.8 6.4 19.2 6.4zM128 640h128l51.2-83.2c32-64 108.8-89.6 172.8-70.4l89.6 44.8 147.2-108.8c19.2-12.8 19.2-38.4 0-57.6v0l-243.2-243.2c-6.4-6.4-12.8-12.8-25.6-12.8-6.4 0-19.2 0-25.6 6.4l-294.4 268.8v256z" />
<glyph unicode="&#xe9ab;" glyph-name="ac-sync" d="M512 192v128l170.667-170.667-170.667-170.667v128c-93.867 0-174.933 34.133-243.2 102.4-64 64-98.133 145.067-98.133 238.933 0 64 17.067 128 55.467 183.467l64-64c-25.6-34.133-34.133-76.8-34.133-119.467 0-68.267 25.6-132.267 72.533-183.467s115.2-72.533 183.467-72.533zM341.333 746.667l170.667 170.667v-128c93.867 0 170.667-34.133 238.933-102.4s102.4-145.067 102.4-238.933c0-64-17.067-128-55.467-183.467l-64 64c25.6 34.133 34.133 76.8 34.133 119.467 0 68.267-25.6 128-76.8 179.2s-110.933 76.8-179.2 76.8v-128l-170.667 170.667z" />
<glyph unicode="&#xe9ac;" glyph-name="ac-markunread" d="M160 832c-52.75 0-96-43.25-96-96v-512c0-52.75 43.25-96 96-96h305.5c40-111.5 145.5-192 270.5-192 158.75 0 288 129.25 288 288 0 67.75-24.5 129.5-64 178.75v333.25c0 52.75-43.25 96-96 96zM160 768h704c2.25 0 4-0.75 6-1.25l-358-247.75-358 247.75c2 0.5 3.75 1.25 6 1.25zM128 707l384-266 384 266v-243.75c-45.75 30.75-100.75 48.75-160 48.75-158.75 0-288-129.25-288-288 0-11 2-21.25 3.25-32h-291.25c-18 0-32 14-32 32zM736 448c124 0 224-100 224-224s-100-224-224-224c-124 0-224 100-224 224s100 224 224 224zM849.25 318.75l-113.25-113.5-77.25 77.5-45.25-45.5 122.5-122.5 158.75 158.5z" />
<glyph unicode="&#xe9ad;" glyph-name="ac-archive" d="M288 832c-52.75 0-96-43.25-96-96v-576c0-52.75 43.25-96 96-96h448c52.75 0 96 43.25 96 96v461.25l-210.75 210.75zM288 768h160v-64h64v64h82.75l173.25-173.25v-434.75c0-18-14-32-32-32h-448c-18 0-32 14-32 32v576c0 18 14 32 32 32zM512 704v-64h64v64zM512 640h-64v-64h64zM512 576v-64h64v64zM512 512h-64v-192c0-35.25 28.75-64 64-64s64 28.75 64 64v128h-64z" />
<glyph unicode="&#xe9ae;" glyph-name="ac-unarchive" d="M288 832c-52.642 0-96-43.358-96-96v-576c0-52.642 43.358-96 96-96h448c52.642 0 96 43.358 96 96v576c0 52.642-43.358 96-96 96h-448zM320 768h384v-64h64v-544c0-18.014-13.986-32-32-32h-448c-18.014 0-32 13.986-32 32v544h64v64zM320 704v-64h64v64h-64zM384 640v-64h64v64h-64zM448 576v-192c0-35.328 28.672-64 64-64s64 28.672 64 64v128h-64v64h-64zM704 704h-64v-64h64v64zM640 640h-64v-64h64v64z" />
<glyph unicode="&#xe9af;" glyph-name="ac-skip_previous" d="M832 768v-640l-453.333 320 453.333 320zM298.667 128h-106.667v640h106.667v-640z" />
<glyph unicode="&#xe9b0;" glyph-name="ac-skip_next" d="M832 128h-106.667v640h106.667v-640zM192 768l453.333-320-453.333-320v640z" />
<glyph unicode="&#xe9b1;" glyph-name="ac-close" d="M512 501.333l213.333 213.333 53.333-53.333-213.333-213.333 213.333-213.333-53.333-53.333-213.333 213.333-213.333-213.333-53.333 53.333 213.333 213.333-213.333 213.333 53.333 53.333 213.333-213.333z" />
<glyph unicode="&#xe9b2;" glyph-name="ac-format_list_numbered" d="M960 640h-640v64h640v-64zM960 256v-64h-640v64h640zM128 832v-320h64v320h-64zM160 384c-51.2 0-96-44.8-96-96h64c0 19.2 12.8 32 32 32s32-12.8 32-32c0 0-6.4-19.2-12.8-38.4-12.8-19.2-25.6-38.4-38.4-57.6-32-38.4-64-70.4-64-70.4l-12.8-6.4v-51.2h192v64h-96c12.8 12.8 12.8 12.8 25.6 25.6 19.2 19.2 32 44.8 44.8 64 12.8 25.6 25.6 44.8 25.6 70.4 0 51.2-44.8 96-96 96z" />
<glyph unicode="&#xe9b3;" glyph-name="ac-mode_edit, control-EditRow" d="M462.849 209.051h335.68v-47.954h-335.68v47.954zM678.643 487.184l-124.681 124.681-330.883-326.086v-124.681h124.681l330.883 326.086zM793.731 597.48c9.59 9.59 9.59 19.183 0 33.568l-100.704 95.909c-9.59 9.59-19.183 9.59-33.568 4.795l-67.136-81.52 124.681-124.681 76.726 71.931z" />
<glyph unicode="&#xe9b4;" d="M172.8 704h684.8v-684.8h-684.8c0 0 0 684.8 0 684.8z" />
<glyph unicode="&#xe9b5;" d="M595.2 787.2c-12.8 102.4-51.2 172.8-166.4 172.8s-153.6-70.4-166.4-172.8c-57.6 0-172.8 0-172.8 0v-851.2h851.2v851.2c0 0-179.2 0-345.6 0zM428.8 876.8c64 0 83.2-32 83.2-83.2-83.2 0-96 0-166.4 0 0 44.8 19.2 83.2 83.2 83.2zM851.2 19.2h-678.4v684.8h166.4c0 0 0 0 0 0h172.8v-428.8c0-51.2-44.8-83.2-83.2-83.2-44.8 0-83.2 44.8-83.2 83.2v256h-89.6v-256c0-96 76.8-172.8 172.8-172.8s172.8 76.8 172.8 172.8v428.8h256v-684.8z" />
<glyph unicode="&#xe9b6;" d="M128 832h768v-768h-768v768z" />
<glyph unicode="&#xe9b7;" d="M0 960v-1024h1024v1024h-1024zM940.8 19.2h-857.6v857.6h851.2v-857.6zM403.2 192l-230.4 230.4 83.2 83.2 147.2-147.2 364.8 371.2 83.2-83.2-448-454.4z" />
<glyph unicode="&#xe9b8;" d="M64 896h896v-896h-896v896z" />
<glyph unicode="&#xe9b9;" d="M1024 960v-1024h-1024v1024h1024zM83.2 19.2h851.2v857.6h-851.2c0 0 0-857.6 0-857.6z" />
<glyph unicode="&#xe9ba;" glyph-name="ac-local_offer" d="M537.6 896c-25.6 0-44.8-12.8-64-25.6l-377.6-384c-38.4-38.4-38.4-102.4-6.4-134.4l320-320c38.4-38.4 96-38.4 134.4 0l384 377.6c19.2 19.2 32 38.4 32 64v326.4c0 51.2-44.8 96-96 96 0 0-326.4 0-326.4 0zM537.6 832h326.4c19.2 0 32-12.8 32-32v-320c0-6.4 0-12.8-6.4-19.2l-390.4-384c-12.8-12.8-25.6-19.2-38.4-6.4l-320 320c-12.8 12.8-12.8 32 0 44.8l377.6 384c6.4 6.4 12.8 12.8 19.2 12.8zM768 768c-38.4 0-64-25.6-64-64s25.6-64 64-64 64 25.6 64 64-25.6 64-64 64z" />
<glyph unicode="&#xe9bb;" glyph-name="ac-star_border, main-StarWhite, main-FavoritesGray" d="M512 281.6l-185.6-115.2 51.2 211.2-166.4 147.2 217.6 19.2 83.2 192 83.2-198.4 217.6-19.2-160-140.8 51.2-211.2-192 115.2zM972.8 576l-332.8 25.6-128 307.2-128-307.2-332.8-25.6 249.6-224-76.8-320 288 172.8 288-172.8-76.8 320 249.6 224z" />
<glyph unicode="&#xe9bc;" glyph-name="ac-star, main-StarGray, main-Favorites" d="M512 204.014l285.417-170.33-73.656 322.246 248.589 220.968-331.453 27.621-128.899 303.832-128.899-303.832-331.453-27.621 248.589-220.968-73.656-322.246 285.417 170.33z" />
<glyph unicode="&#xe9bd;" glyph-name="ac-keyboard_arrow_left" d="M665.6 642.56l-61.44 61.44-256-256 256-256 61.44 61.44-194.56 194.56 194.56 194.56z" />
<glyph unicode="&#xe9be;" glyph-name="ac-keyboard_arrow_right" d="M419.84 704l-61.44-61.44 194.56-194.56-194.56-194.56 61.44-61.44 256 256-256 256z" />
<glyph unicode="&#xe9bf;" d="M588.8 876.8l262.4-262.4v-595.2h-678.4v857.6z" />
<glyph unicode="&#xe9c0;" d="M588.8 876.8l262.4-262.4v-588.8h-678.4v851.2h416zM620.8 960h-537.6v-1024h851.2v710.4c6.4 0-313.6 313.6-313.6 313.6zM768 275.2v-83.2h-512v83.2h512zM256 364.8v83.2h512v-83.2h-512zM512 620.8v-83.2h-256v83.2h256zM256 787.2h256v-83.2h-256v83.2z" />
<glyph unicode="&#xe9c1;" d="M588.8 876.8l262.4-268.8v-588.8h-678.4v857.6h416z" />
<glyph unicode="&#xe9c2;" d="M588.8 876.8l262.4-262.4v-588.8h-678.4v851.2h416zM620.8 960h-537.6v-1024h851.2v710.4c6.4 0-313.6 313.6-313.6 313.6z" />
<glyph unicode="&#xe9c3;" d="M128 601.6h768v-460.8h-768v460.8z" />
<glyph unicode="&#xe9c4;" d="M972.8 832v-768h-921.6v768h921.6zM128 140.8h768v460.8h-768v-460.8z" />
<glyph unicode="&#xe9c5;" glyph-name="ac-expand_less, ac-keyboard_arrow_up" d="M243.613 356.747l64.413-64.413 203.974 209.342 203.974-203.974 64.413 59.045-268.387 268.387-268.387-268.387z" />
<glyph unicode="&#xe9c6;" glyph-name="ac-expand_more, ac-keyboard_arrow_down" d="M780.387 539.253l-64.413 64.413-203.974-209.342-203.974 209.342-64.413-64.413 268.387-268.387 268.387 268.387z" />
<glyph unicode="&#xe9c7;" glyph-name="ac-smartphone" d="M320 896h384c70.692 0 128-57.308 128-128v-640c0-70.692-57.308-128-128-128h-384c-70.692 0-128 57.308-128 128v640c0 70.692 57.308 128 128 128zM320 832c-35.346 0-64-28.654-64-64v-640c0-35.346 28.654-64 64-64h384c35.346 0 64 28.654 64 64v640c0 35.346-28.654 64-64 64h-384zM480 192h64c17.673 0 32-14.327 32-32s-14.327-32-32-32h-64c-17.673 0-32 14.327-32 32s14.327 32 32 32zM480 768h64c17.673 0 32-14.327 32-32s-14.327-32-32-32h-64c-17.673 0-32 14.327-32 32s14.327 32 32 32z" />
<glyph unicode="&#xe9c8;" glyph-name="ac-unlock" d="M704 704h-64c0 70.692-57.308 128-128 128s-128-57.308-128-128v-128h384c70.692 0 128-57.308 128-128v-320c0-70.692-57.308-128-128-128h-512c-70.692 0-128 57.308-128 128v320c0 70.692 57.308 128 128 128h64v128c0 106.039 85.961 192 192 192s192-85.961 192-192zM263.111 512c-39.274 0-71.111-28.654-71.111-64v-320c0-35.346 31.838-64 71.111-64h497.778c39.274 0 71.111 28.654 71.111 64v320c0 35.346-31.838 64-71.111 64h-497.778zM477.342 334.036c5.22-8.173 2.501-18.844-6.095-23.826l-52.216-30.254 52.216-30.254c8.595-4.971 11.327-15.653 6.095-23.826-5.233-8.185-16.438-10.786-25.034-5.803l-50.104 29.040v-55.86c0-9.572-8.158-17.341-18.211-17.341s-18.211 7.769-18.211 17.341v55.86l-50.104-29.040c-8.583-4.983-19.789-2.381-25.021 5.803-5.233 8.173-2.501 18.855 6.095 23.826l52.216 30.254-52.216 30.254c-8.595 4.983-11.327 15.653-6.095 23.826 5.233 8.196 16.438 10.797 25.021 5.803l50.104-29.040v55.86c0 9.572 8.158 17.341 18.211 17.341s18.211-7.769 18.211-17.341v-55.86l50.104 29.040c8.595 4.994 19.801 2.393 25.034-5.803zM733.342 334.036c5.22-8.173 2.501-18.844-6.095-23.826l-52.216-30.254 52.216-30.254c8.595-4.971 11.327-15.653 6.095-23.826-5.233-8.185-16.438-10.786-25.034-5.803l-50.104 29.040v-55.86c0-9.572-8.158-17.341-18.211-17.341s-18.211 7.769-18.211 17.341v55.86l-50.104-29.040c-8.583-4.983-19.789-2.381-25.021 5.803-5.233 8.173-2.501 18.855 6.095 23.826l52.216 30.254-52.216 30.254c-8.595 4.983-11.327 15.653-6.095 23.826 5.233 8.196 16.438 10.797 25.021 5.803l50.104-29.040v55.86c0 9.572 8.158 17.341 18.211 17.341s18.211-7.769 18.211-17.341v-55.86l50.104 29.040c8.595 4.994 19.801 2.393 25.034-5.803z" />
<glyph unicode="&#xe9c9;" glyph-name="ac-business" d="M475.213 706.415h-168.651v-162.706h168.651v162.706zM908.744 127.373c13.89 0 24.801-10.528 24.801-23.928s-10.914-23.928-24.801-23.928h-793.651c-13.89 0-24.801 10.528-24.801 23.928s10.914 23.928 24.801 23.928h89.285v693.887h615.081v-693.887h89.285zM425.608 591.562h-69.447v66.998h69.447v-66.998zM713.306 706.415v-162.706h-168.651v162.706h168.651zM663.704 591.562v66.998h-69.447v-66.998h69.447zM475.213 486.282v-162.706h-168.651v162.706h168.651zM425.608 371.433v66.998h-69.447v-66.998h69.447zM713.306 486.282v-162.706h-168.651v162.706h168.651zM663.704 371.433v66.998h-69.447v-66.998h69.447zM253.98 773.411v-646.033h158.732v138.776h188.493v-138.776h168.651v646.033h-515.873zM551.603 127.373v90.922h-89.285v-90.922h89.285z" />
<glyph unicode="&#xe9ca;" d="M960 320h-256v-320h256v320zM320 384v192h384v-192h320v-448h-1024v448h320zM320 320h-256v-320h256v320zM678.528 667.56l-53.032-53.032-106.968 106.968-106.968-106.968-53.032 53.032 106.968 106.968-106.968 106.968 53.032 53.032 106.968-106.968 106.968 106.968 53.032-53.032-106.968-106.968 106.968-106.968z" />
<glyph unicode="&#xe9cb;" d="M384 512h256v-512h-256v512z" />
<glyph unicode="&#xe9cc;" glyph-name="main-Excel" d="M166.4 896c-51.2 0-102.4-51.2-102.4-102.4v-691.2c0-51.2 51.2-102.4 102.4-102.4h691.2c57.6 0 102.4 51.2 102.4 102.4v691.2c0 51.2-51.2 102.4-102.4 102.4h-691.2zM128 800c0 19.2 12.8 32 32 32h697.6c25.6 0 38.4-12.8 38.4-32v-704c0-19.2-12.8-32-32-32h-704c-19.2 0-32 6.4-32 25.6v710.4zM620.8 192h211.2l-428.8 512h-211.2l428.8-512zM563.2 633.6l102.4-115.2 166.4 185.6h-204.8l-64-70.4zM448 192v83.2l-102.4 121.6-153.6-204.8h256z" />
</font>
</defs>
</svg>
