<?xml version="1.0" encoding="UTF-8"?>
<svg version="1.1" xmlns="http://www.w3.org/2000/svg" xmlns:xlink="http://www.w3.org/1999/xlink">
  <symbol id="poll" viewBox="0 0 32 32" stroke-width="1">
    <path d="M4 17.42C4 22.92 8.28 27 13.8 27c5.2 0 9.47-3.92 9.93-9H13V7.48c-5.08.46-9 4.73-9 9.94zM25.58 16v1.42A11.8 11.8 0 1 1 13.8 5.62H15V16h10.58zM18 12.88h9A9.81 9.81 0 0 0 18 4v8.88zM16.9 2C23.43 2 29 7.28 29 13.8v.9H16V2h.9z"/>
  </symbol>
  <symbol id="embed" viewBox="0 0 32 32" stroke-width="1">
    <path d="M2 10v16.36c0 .9.9 1.64 2 1.64h24c1.1 0 2-.73 2-1.64V10H2zm2-6h24a4 4 0 0 1 4 4v18a4 4 0 0 1-4 4H4a4 4 0 0 1-4-4V8a4 4 0 0 1 4-4zM2.5 6a.5.5 0 0 0-.5.5V8h28V6.5a.5.5 0 0 0-.5-.5h-27zm9.04 16.44l-4.16-4 4.16-4.03 1.08 1.13-3.06 2.9 3.06 2.88-1.08 1.12zm3.35 3.4h-1.37l3.64-14.46h1.36l-3.63 14.46zm5.9-3.4l-1.1-1.16 3.05-2.88-3.05-2.89 1.1-1.1 4.13 4-4.14 4.03z"/>
  </symbol>
  <symbol id="header" viewBox="0 0 32 32" stroke-width="1">
    <path d="M7.33 18.78H2.85l-.92 2.67H0L4.2 10h1.82l4.16 11.45H8.23l-.9-2.67zm-3.93-1.6h3.39l-1.66-4.9h-.05l-1.68 4.9zM12.5 10h17c.28 0 .5.22.5.5v1a.5.5 0 0 1-.5.5h-17a.5.5 0 0 1-.5-.5v-1c0-.28.22-.5.5-.5zm0 6h9c.28 0 .5.22.5.5v1a.5.5 0 0 1-.5.5h-9a.5.5 0 0 1-.5-.5v-1c0-.28.22-.5.5-.5z"/>
  </symbol>
  <symbol id="pivot" viewBox="0 0 32 32" stroke-width="1">
    <path d="M11 0h14c.6 0 1 .45 1 1s-.4 1-1 1H11c-.6 0-1-.45-1-1s.4-1 1-1zm2 8a1 1 0 0 0 0 2h16a1 1 0 0 0 0-2H13zm0-2h16a3 3 0 0 1 0 6H13a3 3 0 0 1 0-6zm0 12a1 1 0 0 0 0 2h16a1 1 0 0 0 0-2H13zm0-2h16a3 3 0 0 1 0 6H13a3 3 0 0 1 0-6zm0 12a1 1 0 0 0 0 2h16a1 1 0 0 0 0-2H13zm0-2h16a3 3 0 0 1 0 6H13a3 3 0 0 1 0-6zM5 0a1 1 0 1 1 0 2H3a1 1 0 0 0-1 1v5h3c.56 0 1 .44 1 1s-.44 1-1 1H2v7a1 1 0 0 0 1 1h2a1 1 0 0 1 0 2H3a3 3 0 0 1-3-3V3a3 3 0 0 1 3-3h2z"/>
  </symbol>
  <symbol id="powerbi" viewBox="0 0 32 32" stroke-width="1">
    <path d="M4 15.96a1 1 0 1 1-2 0V3.25A3 3 0 0 1 5.82.36l22 6.26A3 3 0 0 1 30 9.51v17.37a3 3 0 0 1-3.83 2.88l-1.4-.4a1 1 0 0 1 .56-1.92l1.4.4a1 1 0 0 0 1.27-.96V9.5a1 1 0 0 0-.73-.96l-22-6.26A1 1 0 0 0 4 3.25v12.71zM21 12a1 1 0 0 1 1 1v18a1 1 0 0 1-2 0V13a1 1 0 0 1 1-1zm-6 2a1 1 0 0 1 1 1v14a1 1 0 0 1-2 0V15a1 1 0 0 1 1-1zm-6 4a1 1 0 0 1 1 1v8a1 1 0 0 1-2 0v-8a1 1 0 0 1 1-1zm-6 2a1 1 0 0 1 1 1v4a1 1 0 0 1-2 0v-4a1 1 0 0 1 1-1z"/>
  </symbol>
  <symbol id="scorecard" viewBox="0 0 32 32" stroke-width="1">
    <path d="M4 6a2 2 0 0 0-2 2v18c0 1.1.9 2 2 2h24a2 2 0 0 0 2-2V8a2 2 0 0 0-2-2H4zm0-2h24a4 4 0 0 1 4 4v18a4 4 0 0 1-4 4H4a4 4 0 0 1-4-4V8a4 4 0 0 1 4-4zm14.68 14h-1.71v-7.02h-1.74v-1.2l3.45-.31V18zm8.82-7.21a10 10 0 0 0-1.88 3c-.33.92-.57 2.03-.71 3.34l-.09.87h-1.7l.08-.87c.13-1.25.41-2.4.85-3.45a10.66 10.66 0 0 1 1.8-2.9h-4.38V9.48h6.03v1.32z"/>
  </symbol>
  <symbol id="table" viewBox="0 0 32 32" stroke-width="1">
    <path d="M2 4v22h28V4H2zm-.36-2h28.72c.9 0 1.64.73 1.64 1.64v22.98c0 .9-.73 1.64-1.64 1.64H1.64c-.9 0-1.64-.74-1.64-1.64V3.64C0 2.74.73 2 1.64 2zM15 24c-.6 0-1-.45-1-1s.4-1 1-1h6c.6 0 1 .45 1 1s-.4 1-1 1h-6zm0-4c-.6 0-1-.45-1-1s.4-1 1-1h2c.6 0 1 .45 1 1s-.4 1-1 1h-2zm0-4c-.6 0-1-.45-1-1s.4-1 1-1h6c.6 0 1 .45 1 1s-.4 1-1 1h-6zM5 24c-.6 0-1-.45-1-1s.4-1 1-1h2c.6 0 1 .45 1 1s-.4 1-1 1H5zm0-4c-.6 0-1-.45-1-1s.4-1 1-1h6c.6 0 1 .45 1 1s-.4 1-1 1H5zm0-4c-.6 0-1-.45-1-1s.4-1 1-1h2c.6 0 1 .45 1 1s-.4 1-1 1H5zm10-8c-.6 0-1-.45-1-1s.4-1 1-1h6c.6 0 1 .45 1 1s-.4 1-1 1h-6zM5 8c-.6 0-1-.45-1-1s.4-1 1-1h4c.6 0 1 .45 1 1s-.4 1-1 1H5z"/>
  </symbol>
  <symbol id="trendcard" viewBox="0 0 32 32" stroke-width="1">
    <path d="M4 6a2 2 0 0 0-2 2v18c0 1.1.9 2 2 2h24a2 2 0 0 0 2-2V8a2 2 0 0 0-2-2H4zm0-2h24a4 4 0 0 1 4 4v18a4 4 0 0 1-4 4H4a4 4 0 0 1-4-4V8a4 4 0 0 1 4-4zm14.64 9.24h2.1v1.48h-2.1v2.42h-1.62v-2.42H14.9v-1.48h2.12v-2.3h1.62v2.3zm5.52 3.57c.45 0 .82-.17 1.1-.5.28-.33.43-.81.43-1.43v-.42a1.9 1.9 0 0 1-1.54.73c-.8 0-1.42-.26-1.87-.77a3.07 3.07 0 0 1-.68-2.1c0-.86.27-1.56.8-2.13a2.72 2.72 0 0 1 2.06-.84c.87 0 1.58.3 2.12.9.55.6.82 1.44.82 2.52v2.02c0 1.03-.3 1.85-.91 2.44-.61.6-1.39.9-2.33.9a4.85 4.85 0 0 1-1.8-.36l.2-1.24a4.16 4.16 0 0 0 1.6.28zm.28-2.87c.28 0 .52-.05.74-.16.2-.1.38-.24.5-.42v-.79c0-.62-.1-1.1-.32-1.42a1.02 1.02 0 0 0-.9-.49c-.34 0-.62.16-.83.48-.22.32-.33.72-.33 1.18 0 .48.1.87.3 1.17.2.3.47.45.84.45z"/>
  </symbol>
  <symbol id="wiki" viewBox="0 0 32 32" stroke-width="1">
    <path d="M6 2a2 2 0 0 0-2 2v24c0 1.1.9 2 2 2h20a2 2 0 0 0 2-2V4a2 2 0 0 0-2-2H6zm0-2h20a4 4 0 0 1 4 4v24a4 4 0 0 1-4 4H6a4 4 0 0 1-4-4V4a4 4 0 0 1 4-4zm7.55 11.32h.03l1.22-5.85h1.67l-2 8.53H12.9l-1.56-5.63h-.04L9.73 14h-1.6L6.15 5.47h1.68l1.22 5.84h.04l1.6-5.84h1.26l1.6 5.85zM7 24a1 1 0 0 1 0-2h8a1 1 0 0 1 0 2H7zm0-4a1 1 0 0 1 0-2h14a1 1 0 0 1 0 2H7z"/>
  </symbol>
</svg>
