<?xml version="1.0" encoding="UTF-8"?>
<svg width="121" height="106" viewBox="0 0 121 106" fill="none" xmlns="http://www.w3.org/2000/svg">
<path d="M98.3125 85.8095H73.1042V80.7619H98.3125C108.04 80.7619 115.958 72.8346 115.958 63.0952C115.958 53.3533 108.04 45.4286 98.3125 45.4286C96.9185 45.4286 95.7917 44.2979 95.7917 42.9048V40.381C95.7917 20.8971 81.0902 5.04762 63.0208 5.04762C48.4126 5.04762 32.7708 14.1737 32.7708 27.7619C32.7708 29.155 31.6415 30.2857 30.25 30.2857C16.3501 30.2857 5.04167 41.6075 5.04167 55.5238C5.04167 69.4401 16.3501 80.7619 30.25 80.7619H47.8958V85.8095H30.25C13.5696 85.8095 0 72.2239 0 55.5238C0 39.6314 12.2891 26.558 27.8552 25.3315C29.4887 9.61571 46.8648 0 63.0208 0C83.8706 0 100.833 18.1159 100.833 40.381V40.5198C112.162 41.7791 121 51.4226 121 63.0952C121 75.6184 110.823 85.8095 98.3125 85.8095ZM60.5 106C59.1085 106 57.9792 104.869 57.9792 103.476V45.4286C57.9792 44.0354 59.1085 42.9048 60.5 42.9048C61.8915 42.9048 63.0208 44.0354 63.0208 45.4286V103.476C63.0208 104.869 61.8915 106 60.5 106ZM73.1042 58.0476C72.5471 58.0476 71.9975 57.8659 71.5286 57.4949L60.5 48.6616L49.4714 57.4949C48.3874 58.3656 46.7967 58.189 45.9296 57.1012C45.0599 56.0109 45.2364 54.4234 46.3228 53.5552L58.927 43.46C59.8471 42.723 61.1554 42.723 62.0755 43.46L74.6797 53.5552C75.7687 54.4259 75.9426 56.0134 75.0729 57.1012C74.5763 57.7246 73.8428 58.0476 73.1042 58.0476Z" fill="#BABABA"/>
</svg>
